<?xml version="1.0" encoding="utf-8"?>
<!-- Generator: Adobe Illustrator 25.2.0, SVG Export Plug-In . SVG Version: 6.00 Build 0)  -->
<svg version="1.1" id="Capa_1" xmlns="http://www.w3.org/2000/svg" xmlns:xlink="http://www.w3.org/1999/xlink" x="0px" y="0px"
	 viewBox="0 0 24 24" style="enable-background:new 0 0 24 24;" xml:space="preserve">
<style type="text/css">
	.st0{fill:none;}
	.st1{fill:#FFFFFF;}
</style>
<path class="st0" d="M0,0h24v24H0V0z"/>
<path class="st1" d="M2.9,20.9c-0.5,0-0.8-0.2-1-0.7l0-0.1l0-0.3c0.1-0.3,0.4-0.6,1-0.6h2.6L4,17.8c-0.6-0.6-0.9-1.3-0.9-2
	s0.3-1.4,0.9-2l9.9-9.9c0.6-0.6,1.3-0.9,2-0.9s1.4,0.3,2,0.9l3.4,3.4c1,1,1.2,2.4,0.5,3.6l-0.1,0.1l-8.3,8.3h3
	c0.4,0,0.7,0.3,0.7,0.8v0l0,0.1c-0.1,0.3-0.3,0.7-0.8,0.7H2.9z M11,19.3c0.3-0.4,0.6-0.8,1-1.1l-5-5l-1.8,1.8
	c-0.5,0.5-0.5,1.1,0,1.6l2.7,2.7H11z M13.1,17.1l7-7c0.3-0.3,0.4-0.5,0.4-0.7c0-0.3-0.1-0.5-0.3-0.7c-0.4-0.4-0.8-0.8-1.2-1.2
	c-0.8-0.9-1.6-1.6-2.3-2.3c-0.3-0.2-0.6-0.4-0.8-0.4c-0.3,0-0.5,0.1-0.7,0.3l-7,7L13.1,17.1z"/>
</svg>
