<?xml version="1.0" encoding="utf-8"?>
<!-- Generator: Adobe Illustrator 25.2.0, SVG Export Plug-In . SVG Version: 6.00 Build 0)  -->
<svg version="1.1" id="Capa_1" xmlns="http://www.w3.org/2000/svg" xmlns:xlink="http://www.w3.org/1999/xlink" x="0px" y="0px"
	 viewBox="0 0 24 24" style="enable-background:new 0 0 24 24;" xml:space="preserve">
<style type="text/css">
	.st0{fill:none;}
	.st1{fill:#FFFFFF;}
</style>
<g>
	<rect class="st0" width="24" height="24"/>
</g>
<g>
	<g>
		<path class="st1" d="M20,2H4C3,2,2,2.9,2,4v3c0,0.7,0.4,1.3,1,1.7V20c0,1.1,1.1,2,2,2h14c0.9,0,2-0.9,2-2V8.7c0.6-0.4,1-1,1-1.7V4
			C22,2.9,21,2,20,2z M19,20H5V9h14V20z M20,7H4V4h16V7z"/>
		<rect x="9" y="12" class="st1" width="6" height="2"/>
	</g>
</g>
</svg>
