<svg xmlns="http://www.w3.org/2000/svg" viewBox="0 0 23.42 22.89"><defs><style>.cls-1{fill:#fff;}</style></defs><title>Recurso 10</title><g id="Capa_2" data-name="Capa 2"><g id="Capa_3" data-name="Capa 3"><path class="cls-1" d="M.38,22.85H15c.1,0,.2,0,.28,0H.4S.37,22.87.38,22.85Z"/><path class="cls-1" d="M18.36,22.85a0,0,0,0,0,0,0H16.12a.18.18,0,0,1,.16-.05Z"/><path class="cls-1" d="M18.4,5.85,12.83.27A.86.86,0,0,0,12.17,0H.45C.15,0,.05.13,0,.44s0,.85,0,1.27v.85a.57.57,0,0,1,0,.29Q0,12.63,0,22.4c0,.35.07.44.35.46H15a.61.61,0,0,1,.3,0h.84a.49.49,0,0,1,.24,0h2c.26-.05.34-.14.37-.39V16.16a3.39,3.39,0,0,1-.9.48v5.17c0,.18,0,.24-.23.24q-8.23,0-16.46,0c-.2,0-.24-.06-.24-.25V1.12c0-.21,0-.25.25-.25,3.5,0,7,0,10.49,0,.24,0,.27.08.27.29,0,1.68,0,3.37,0,5.05,0,.46.13.59.59.59h5.08c.18,0,.25,0,.25.23v3a3.24,3.24,0,0,1,.9.48V9.43c0-.93,0-1.86,0-2.79A1,1,0,0,0,18.4,5.85ZM12.94,6c-.1,0-.2,0-.2-.15,0-1.41,0-2.82,0-4.23,0,0,0,0,0,0L17.16,6Z"/><path class="cls-1" d="M10.62,19.07H5.67c-.35,0-.56-.17-.54-.43a.4.4,0,0,1,.37-.4H15.63c.3,0,.48.17.49.41s-.19.43-.5.43h-5Z"/><path class="cls-1" d="M13.22,14H5.76q-.63,0-.63-.42c0-.29.2-.43.62-.43h7.42a1,1,0,0,0,0,.17A3.82,3.82,0,0,0,13.22,14Z"/><path class="cls-1" d="M15.23,16.54H5.66c-.33,0-.53-.17-.54-.42s.2-.43.53-.43h8.41A3.52,3.52,0,0,0,15.23,16.54Z"/><path class="cls-1" d="M10.62,8.91H5.74a1.2,1.2,0,0,1-.27,0,.42.42,0,0,1-.09-.79.85.85,0,0,1,.32,0h9.86a.7.7,0,0,1,.29,0,.41.41,0,0,1-.08.79,1.22,1.22,0,0,1-.27,0Z"/><path class="cls-1" d="M14.48,10.61a3.39,3.39,0,0,0-.76.84H5.78a1.61,1.61,0,0,1-.22,0A.42.42,0,0,1,5.13,11a.43.43,0,0,1,.4-.43h9Z"/><path class="cls-1" d="M3.42,8.91H3a.42.42,0,0,1-.42-.38.4.4,0,0,1,.34-.44,3.42,3.42,0,0,1,1,0,.39.39,0,0,1,.32.45.39.39,0,0,1-.39.37Z"/><path class="cls-1" d="M3.43,15.7H3.9a.38.38,0,0,1,.36.37.37.37,0,0,1-.31.44,3.08,3.08,0,0,1-1.05,0,.37.37,0,0,1-.31-.42A.39.39,0,0,1,3,15.7Z"/><path class="cls-1" d="M3.43,18.23a3.38,3.38,0,0,1,.45,0,.41.41,0,0,1,.39.4.41.41,0,0,1-.39.43H3a.42.42,0,0,1,0-.84C3.13,18.22,3.28,18.23,3.43,18.23Z"/><path class="cls-1" d="M3.42,11.45a3.27,3.27,0,0,1-.44,0,.39.39,0,0,1-.39-.39.38.38,0,0,1,.34-.42,3.79,3.79,0,0,1,1,0,.37.37,0,0,1,.32.42.37.37,0,0,1-.37.39,3.68,3.68,0,0,1-.47,0Z"/><path class="cls-1" d="M3.43,13.14l.5,0A.41.41,0,0,1,4,14,3.09,3.09,0,0,1,2.9,14a.37.37,0,0,1-.31-.4.38.38,0,0,1,.33-.4Z"/><path class="cls-1" d="M23.15,19.17c-1-1-2-2-3-3,0,0-.08-.07,0-.15A4.29,4.29,0,0,0,21,13.92a4.38,4.38,0,0,0-.18-2,4.44,4.44,0,0,0-1.4-2,4.52,4.52,0,0,0-.74-.49,4.7,4.7,0,0,0-.9-.36A6.18,6.18,0,0,0,17.2,9a4.28,4.28,0,0,0-2.29.32,4.33,4.33,0,0,0-1.73,1.34,3.65,3.65,0,0,0-.34.5c-.07.11-.13.23-.19.34a4.26,4.26,0,0,0-.42,1.7,3.5,3.5,0,0,0,0,.85h0a4.2,4.2,0,0,0,.62,1.68,4.34,4.34,0,0,0,.7.85l.1.09a4.34,4.34,0,0,0,3.69,1.08l.43-.09a5,5,0,0,0,.9-.36,5,5,0,0,0,.62-.4c.07-.06.11-.06.18,0l3,3a.93.93,0,0,0,.36.26H23a.41.41,0,0,0,.38-.37v-.19A1.11,1.11,0,0,0,23.15,19.17Zm-4.43-3a3.39,3.39,0,0,1-.9.48,3.57,3.57,0,0,1-1.18.2,3.63,3.63,0,0,1-1.41-.3,3.5,3.5,0,0,1-2-2.54,3.82,3.82,0,0,1-.06-.68,1,1,0,0,1,0-.17,3.48,3.48,0,0,1,1.31-2.54,3.47,3.47,0,0,1,2.19-.76,3.35,3.35,0,0,1,1.15.2,3.24,3.24,0,0,1,.9.48,3.49,3.49,0,0,1,0,5.63Z"/></g></g></svg>