<svg xmlns="http://www.w3.org/2000/svg" viewBox="0 0 20.16 20.73"><defs><style>.cls-1{fill:#fff;}</style></defs><title>Recurso 17</title><g id="Capa_2" data-name="Capa 2"><g id="Capa_3" data-name="Capa 3"><path class="cls-1" d="M2.65,5a.41.41,0,0,1-.42.4.41.41,0,0,1,0-.82A.41.41,0,0,1,2.65,5Z"/><path class="cls-1" d="M19.83,11.64,17.65,8.85a.55.55,0,0,1-.12-.35c0-1.82,0-3.64,0-5.46a.75.75,0,0,0-.23-.57C16.56,1.73,15.83,1,15.09.25A1.26,1.26,0,0,0,14.77,0H2.8a1.19,1.19,0,0,0-1,1.36V2.73c0,.23,0,.45,0,.67a.41.41,0,0,0,.34.4.43.43,0,0,0,.45-.24.89.89,0,0,0,0-.28V1.22c0-.29.12-.41.39-.41H14.11c.12,0,.16,0,.15.16V2.1a1.14,1.14,0,0,0,1.19,1.18c.36,0,.71,0,1.07,0,.15,0,.2,0,.2.19v4s0,.12,0,.16a1.19,1.19,0,0,0-1.83-.19l-2,1.51a1.12,1.12,0,0,0-.49.78c0,.14-.06.17-.2.16a3.61,3.61,0,0,0-2.24.5.33.33,0,0,1-.23.05c-.61-.1-1.22-.2-1.84-.28-.1,0-.11-.05-.12-.14a1.12,1.12,0,0,0-.48-.9L5.2,7.5a1.15,1.15,0,0,0-1.68.21c-.26.32-.5.64-.75,1,0,0,0,.1-.12.09v-2a.46.46,0,0,0-.16-.4.38.38,0,0,0-.42,0,.42.42,0,0,0-.24.43V9.64a.61.61,0,0,1-.15.44l-1.4,1.8A1.14,1.14,0,0,0,.5,13.57l1.2.92a.29.29,0,0,1,.13.27v2.73a1.14,1.14,0,0,0,1.25,1.26H6a.24.24,0,0,1,.24.13,1.14,1.14,0,0,0,.75.5.25.25,0,0,1,.23.18,1,1,0,0,0,1.33.58.5.5,0,0,1,.71.18l0,0a1.17,1.17,0,0,0,1.92-.3c0-.08.09-.12.19-.1a1.07,1.07,0,0,0,1.24-.78.13.13,0,0,1,.15-.11,1.11,1.11,0,0,0,.64-.23.42.42,0,0,1,.28-.08h2.57a1.13,1.13,0,0,0,1.22-1.22c0-.77,0-1.54,0-2.31a.31.31,0,0,1,.14-.29l1.93-1.47A1.17,1.17,0,0,0,19.83,11.64ZM15.37,2.46a.28.28,0,0,1-.28-.29c0-.24,0-.48,0-.72l1,1C15.86,2.47,15.61,2.48,15.37,2.46ZM1,12.93a.34.34,0,0,1-.07-.56L4.14,8.24a.36.36,0,0,1,.59-.07L6.79,9.74A.36.36,0,0,1,7,10a.38.38,0,0,1-.1.26L3.64,14.43a.37.37,0,0,1-.59.07Zm1.94,5c-.19,0-.29-.15-.29-.38V15.28c.06,0,.09,0,.13,0a1.17,1.17,0,0,0,.82.09c.07,0,.15-.05.19,0s.25.2.18.37a1.2,1.2,0,0,0,.93,1.63s.09,0,.1.07a2.6,2.6,0,0,0,.19.42Zm1.88-1.4a.33.33,0,0,1,0-.49l.69-.61c.24-.22.48-.44.73-.64a.34.34,0,0,1,.56.08.62.62,0,0,0,0,.1.32.32,0,0,1-.15.27c-.47.43-.94.86-1.42,1.28C5.07,16.67,5,16.67,4.82,16.53Zm1.49,1a.26.26,0,0,1-.42-.05c-.14-.15-.15-.3,0-.42.38-.36.77-.71,1.17-1.06a.35.35,0,0,1,.42-.08.33.33,0,0,1,.2.29.28.28,0,0,1-.11.21Zm1.12.94a.33.33,0,0,1-.23.12.38.38,0,0,1-.29-.22.24.24,0,0,1,0-.31c.39-.36.78-.73,1.2-1.05a.3.3,0,0,1,.45.05c.11.14.09.28-.09.43Zm1.64.27a4.16,4.16,0,0,1-.71.62.37.37,0,0,1-.11,0A.26.26,0,0,1,8,19.24.2.2,0,0,1,8.05,19l.56-.5a.35.35,0,0,1,.27-.1C9.05,18.41,9.17,18.61,9.07,18.73Zm5.28-1.43a.35.35,0,0,1-.4,0,.85.85,0,0,1-.32-.24l-1.48-1.47a.54.54,0,0,0-.29-.17.38.38,0,0,0-.42.2.39.39,0,0,0,.08.5c.38.38.76.75,1.13,1.13l.26.25c.24.24.28.45.11.61s-.38.13-.61-.11-.69-.7-1-1a.41.41,0,0,0-.62,0,.42.42,0,0,0,.05.63l1,1a.34.34,0,0,1,0,.5c-.11.13-.28.14-.46,0s-.38-.34-.57-.52a.41.41,0,0,0-.61,0,.41.41,0,0,0,0,.61l.21.19c.17.17.18.25.05.43a.33.33,0,0,1-.46.12,5.34,5.34,0,0,1-.44-.39c-.06,0,0-.08,0-.11a1,1,0,0,0-.14-1.59c-.07-.05-.07-.09,0-.17a1.11,1.11,0,0,0-.82-1.46A.15.15,0,0,1,8.46,16a1.15,1.15,0,0,0-.74-.87A.15.15,0,0,1,7.61,15,1.08,1.08,0,0,0,7,14a1.1,1.1,0,0,0-1.2.14c-.22.17-.42.36-.63.54l-.52.47,0,0c-.21-.25-.21-.25,0-.5L7.33,11c0-.07.09-.14.21-.12l1.25.2a.82.82,0,0,1-.26.2,3.15,3.15,0,0,0-.63.58,1.36,1.36,0,0,0-.11,1.67A1.45,1.45,0,0,0,9.44,14a9.56,9.56,0,0,0,1.07-.51.19.19,0,0,1,.26,0L14,16.47a1.13,1.13,0,0,1,.35.43A.33.33,0,0,1,14.35,17.3Zm-.08-1.72-2.5-2.24-.67-.61c-.26-.24-.37-.25-.69-.09l-1.1.55a.85.85,0,0,1-.47.09.49.49,0,0,1-.4-.74A1.36,1.36,0,0,1,8.91,12c.52-.35,1-.69,1.56-1a2.8,2.8,0,0,1,1.59-.34c.44-.1.78.14,1.09.57.75,1,1.54,2,2.33,3a.24.24,0,0,1,0,.32,3.85,3.85,0,0,1-1,1.07C14.36,15.72,14.32,15.62,14.27,15.58Zm2.45-.05c0,.67,0,1.33,0,2,0,.29-.11.4-.4.4-.49,0-1,0-1.44,0A1.18,1.18,0,0,0,15,16.36c0-.07,0-.1,0-.15a4.23,4.23,0,0,0,1.05-1.1c0-.07.08,0,.14,0a.8.8,0,0,0,.25.11C16.71,15.23,16.73,15.34,16.72,15.53Zm2.46-2.78-2.09,1.6c-.23.17-.4.13-.6-.12l-2.44-3.14c-.25-.31-.49-.63-.73-.94a.36.36,0,0,1,.07-.59L15.4,8c.27-.21.43-.19.64.08l3.17,4.07a.43.43,0,0,1,.13.29A.36.36,0,0,1,19.18,12.75Z"/></g></g></svg>