<svg xmlns="http://www.w3.org/2000/svg" viewBox="0 0 22.25 22.25"><defs><style>.cls-1{fill:#fff;}</style></defs><title>Recurso 6</title><g id="Capa_2" data-name="Capa 2"><g id="Capa_3" data-name="Capa 3"><path class="cls-1" d="M10.53,22.21c.06,0,.12,0,.17,0h-.17s0,0,0,0Z"/><path class="cls-1" d="M11.53,22.25c0-.06.08-.05.13,0s0,0,0,0v0Z"/><path class="cls-1" d="M10.53,22.21v0h-.09C10.45,22.2,10.49,22.21,10.53,22.21Z"/><path class="cls-1" d="M22.25,10.27a.07.07,0,0,1,0-.06,8.4,8.4,0,0,0-.48-2.53,11.05,11.05,0,0,0-3.32-5A11.43,11.43,0,0,0,14.71.55,11.47,11.47,0,0,0,10.39,0a10,10,0,0,0-2.71.5,11.26,11.26,0,0,0-7.09,7A11.29,11.29,0,0,0,0,11.87,9.69,9.69,0,0,0,.53,14.6a11,11,0,0,0,3.33,5,11.08,11.08,0,0,0,5.49,2.57c.29.05.58,0,.87.09h.22s.07,0,.1,0,.11,0,.16,0h.83s.08,0,.12,0h.1s.07,0,.08,0H12c.33-.05.66,0,1-.09a11.16,11.16,0,0,0,6.63-3.73A11,11,0,0,0,22.15,13c.06-.31.05-.62.1-.92v-.22s0-.06,0-.1v-.08s0-.09,0-.12V10.7s0-.1,0-.16,0-.07,0-.1Zm-11.12,10a9.09,9.09,0,1,1,9.1-9.08A9.11,9.11,0,0,1,11.13,20.22Z"/><path class="cls-1" d="M9.59,15.35a.92.92,0,0,1-.72-.3Q7.21,13.4,5.55,11.74A1,1,0,1,1,7,10.34l2.44,2.44c.11.11.17.13.29,0l5.49-5.49a1,1,0,0,1,1.44-.14,1,1,0,0,1,.17,1.36,2.2,2.2,0,0,1-.2.23L10.4,15A1.08,1.08,0,0,1,9.59,15.35Z"/></g></g></svg>