<svg xmlns="http://www.w3.org/2000/svg" viewBox="0 0 24 24"><defs><style>.cls-1{fill:#fff;}</style></defs><title>Recurso 16</title><g id="Capa_2" data-name="Capa 2"><g id="Capa_3" data-name="Capa 3"><path class="cls-1" d="M0,3.89c.11-.24.14-.52.27-.76a2.53,2.53,0,0,1,2.15-1.4H12.66a1.6,1.6,0,0,1,.44,0,.85.85,0,0,1,.6.92.84.84,0,0,1-.8.75H2.76c-.73,0-1,.31-1,1V21.25c0,.72.31,1,1,1H17.85a.87.87,0,0,0,1-.63,1.75,1.75,0,0,0,0-.4V13a1.05,1.05,0,0,1,.13-.61.85.85,0,0,1,1.55.2,1,1,0,0,1,0,.35c0,2.8,0,5.59,0,8.39a2.56,2.56,0,0,1-2,2.57,3.08,3.08,0,0,1-.68.07H2.66A2.57,2.57,0,0,1,.07,22a1.52,1.52,0,0,1,0-.21c0-.07,0-.16,0-.24Z"/><path class="cls-1" d="M22.15.33A6.51,6.51,0,0,0,21.09,0h-.75l-.05,0a3.2,3.2,0,0,0-1.94,1L7.2,12.16a1.08,1.08,0,0,0-.3.44L5.19,17.72a.86.86,0,0,0,0,.55.88.88,0,0,0,1.21.5c1.6-.53,3.19-1.07,4.79-1.59a1.87,1.87,0,0,0,.72-.45l11-11,.29-.3A3.28,3.28,0,0,0,22.15.33Zm-.4,4.13L19.6,6.62Q15.22,11,10.85,15.37a.92.92,0,0,1-.39.24l-2.88,1-.22.07,1.06-3.19a.56.56,0,0,1,.16-.25l11-10.95a1.57,1.57,0,0,1,2.59.35A1.56,1.56,0,0,1,21.75,4.46Z"/></g></g></svg>