<svg xmlns="http://www.w3.org/2000/svg" viewBox="0 0 21.48 18.6"><defs><style>.cls-1{fill:#fff;}</style></defs><title>Recurso 18</title><g id="Capa_2" data-name="Capa 2"><g id="Capa_3" data-name="Capa 3"><path class="cls-1" d="M21.46,11.46a1.7,1.7,0,0,0-1.12-1.37.77.77,0,0,0-.76-.09,2,2,0,0,0-1.12.61c-.89.91-1.8,1.81-2.7,2.71,0,0-.09.12-.18.14a2,2,0,0,0-.75-1.65.9.9,0,0,0-.68-.32,4.37,4.37,0,0,0-.88-.05h-1.9a3.86,3.86,0,0,0-.68-.11c-.69-.3-1.33-.71-2-.95-.18-.17-.43-.13-.64-.2a4.75,4.75,0,0,0-1.19,0,5.08,5.08,0,0,0-2.1.7c-.07.05-.15.1-.24,0a1.86,1.86,0,0,0-.55-.53,1.64,1.64,0,0,0-.84-.21H.86a.5.5,0,0,0-.39.08.71.71,0,0,0-.47.73c0,2.32,0,4.63,0,6.94a.65.65,0,0,0,.73.74h2a3.16,3.16,0,0,0,.81-.05,1.17,1.17,0,0,0,.71-.39,1.44,1.44,0,0,0,.18-.25c.15-.28.15-.28.48-.21.06,0,.11,0,.16,0,.78.22,1.56.44,2.33.7a2.52,2.52,0,0,0,.82.19c2.13,0,4.26,0,6.4,0a3.83,3.83,0,0,0,3-1.4c.27-.32.52-.66.79-1,.61-.77,1.22-1.55,1.84-2.32.21-.22.41-.46.6-.7a2,2,0,0,0,.63-1.24C21.47,11.78,21.48,11.62,21.46,11.46ZM3.37,14.85v2.23c0,.17-.08.26-.25.25H1.69c-.44,0-.44,0-.42-.42,0-.94,0-1.88,0-2.82,0-.1,0-.13.13-.12H3.25c.1,0,.13,0,.12.13v.76Zm-.12-2.14H1.73c-.46,0-.46,0-.46-.44,0-.23,0-.46,0-.69s0-.13.13-.13H3c.4,0,.44,0,.42.41v.72C3.38,12.68,3.35,12.71,3.25,12.71ZM20.11,12l-1,1.33c-.76,1-1.52,1.92-2.27,2.89a2.76,2.76,0,0,1-2.31,1.12h-6a.72.72,0,0,1-.21,0l-2.11-.65a4.68,4.68,0,0,1-.73-.21h0l-.7-.2c-.08,0-.09-.07-.09-.14,0-.59,0-1.18,0-1.77V12.54s0-.11.05-.14a5.83,5.83,0,0,1,1.79-.87h.09a2.35,2.35,0,0,1,1,0,.12.12,0,0,1,.08,0,2.45,2.45,0,0,1,.93.23c.38.17.75.37,1.13.56l.62.31a1.35,1.35,0,0,0,.69.13c.68,0,1.36,0,2.05,0a2.69,2.69,0,0,1,.8,0,.6.6,0,0,1,.46.65.63.63,0,0,1-.61.56H9.91a.63.63,0,1,0,0,1.26h5.22a1.1,1.1,0,0,0,.93-.42c1.1-1.12,2.22-2.22,3.33-3.33a.61.61,0,0,1,.33-.22.44.44,0,0,1,.45.22A.42.42,0,0,1,20.11,12Z"/><path class="cls-1" d="M17.28,3.87a.91.91,0,0,1,0-.17c0-.52-.24-.75-.77-.75H14.45c-.13,0-.13-.08-.13-.16V.72A.64.64,0,0,0,13.61,0H11.24a.64.64,0,0,0-.71.7v2c0,.16,0,.21-.2.21-.68,0-1.36,0-2,0a.64.64,0,0,0-.71.71V6c0,.31,0,.44.26.65a.8.8,0,0,0,.5.13h1.84c.09,0,.21,0,.28.09s0,.51,0,.77c0,.45,0,.9,0,1.36a.64.64,0,0,0,.7.67h2.45a.64.64,0,0,0,.7-.7c0-.45,0-.91,0-1.36,0-.28,0-.44,0-.64s.06-.22.22-.22l.65,0h1.37a.64.64,0,0,0,.7-.7c0-.45,0-.9,0-1.36S17.27,4.21,17.28,3.87ZM16,5.52H13.91a.7.7,0,0,0-.79.79c0,.7,0,1.41,0,2.11h0c0,.33,0,.33-.32.31h-.91c-.1,0-.15,0-.15-.13,0-.71,0-1.42,0-2.12a1.08,1.08,0,0,0-.17-.74.91.91,0,0,0-.65-.23H8.61c-.12,0-.1-.06-.1-.12,0-.23,0-.47,0-.7,0-.57,0-.57.54-.54H11a.69.69,0,0,0,.74-.74c0-.35,0-.7,0-1.05V1.48c0-.57,0-.57.55-.54H13s.15,0,.12.09c0,.77,0,1.54,0,2.31a.86.86,0,0,0,.24.65,1.1,1.1,0,0,0,.73.18h2.13c.09,0,.13,0,.13.12,0,.31,0,.63,0,.94S16.35,5.54,16,5.52Z"/></g></g></svg>