<svg xmlns="http://www.w3.org/2000/svg" viewBox="0 0 11.49 18.69"><defs><style>.cls-1{fill:#fff;}</style></defs><title>Recurso 24</title><g id="Capa_2" data-name="Capa 2"><g id="Capa_3" data-name="Capa 3"><path class="cls-1" d="M11.46,5.16a5.51,5.51,0,0,0-1.23-3A5.67,5.67,0,0,0,6.61.07.47.47,0,0,1,6.33,0H6.18c0,.06-.07,0-.11,0S6,.05,6,0H5.52a.05.05,0,0,1-.07,0s-.09,0-.11,0H5.16c0,.06-.07,0-.11,0A5.56,5.56,0,0,0,2.5,1,5.68,5.68,0,0,0,0,5.69,1.5,1.5,0,0,0,2,7.18,1.55,1.55,0,0,0,3,5.66,2.7,2.7,0,0,1,8.3,4.87,2.72,2.72,0,0,1,7.21,8a3.27,3.27,0,0,1-1.58.44A1.5,1.5,0,0,0,4.24,9.82a7.85,7.85,0,0,0,0,.84c0,1,0,2,0,3a1.39,1.39,0,0,0,.9,1.22,1.43,1.43,0,0,0,1.5-.19,1.53,1.53,0,0,0,.61-1.32c0-.65,0-1.31,0-2,0-.11,0-.15.14-.19a5.62,5.62,0,0,0,3-2.2A5.65,5.65,0,0,0,11.46,5.16ZM7.24,10.52l-.35.1c-.29.08-.38.19-.38.49v2.41a.71.71,0,0,1-.44.69.73.73,0,0,1-.82-.1A.75.75,0,0,1,5,13.5V10.05A.77.77,0,0,1,5.8,9.2,3.45,3.45,0,1,0,2.36,5a6.31,6.31,0,0,0-.08.76.77.77,0,0,1-.78.73.78.78,0,0,1-.76-.76A4.87,4.87,0,0,1,2,2.45,4.83,4.83,0,0,1,4.59.88a4.86,4.86,0,0,1,4.18.9,4.82,4.82,0,0,1,1.94,3.46A5,5,0,0,1,7.24,10.52Z"/><path class="cls-1" d="M5.77,15.66a1.52,1.52,0,1,0,1.5,1.52A1.52,1.52,0,0,0,5.77,15.66Zm0,2.28A.76.76,0,0,1,5,17.15a.77.77,0,0,1,.78-.75.78.78,0,0,1,.75.79A.77.77,0,0,1,5.75,17.94Z"/></g></g></svg>