<svg xmlns="http://www.w3.org/2000/svg" viewBox="0 0 19.22 22.65"><defs><style>.cls-1{fill:#fff;}.cls-2{fill:#0b78ce;}.cls-3{fill:#0bafea;}.cls-4{fill:none;stroke:#000;stroke-miterlimit:10;}.cls-5{fill:#ffdf07;}.cls-6{fill:#ff8708;}.cls-7{fill:#d4e00a;}.cls-8{fill:#4f8bc7;}.cls-9{fill:#d38ebf;}.cls-10{fill:#f70a0b;}</style></defs><title>Recurso 22</title><g id="Capa_2" data-name="Capa 2"><g id="Capa_3" data-name="Capa 3"><circle class="cls-1" cx="7.5" cy="15.15" r="7.5"/><path class="cls-2" d="M7.34,15.8a1,1,0,0,1-1,1.05H2.21v-.77h4a.28.28,0,0,0,0-.55H3.05a1.05,1.05,0,0,1-.91-1,1,1,0,0,1,1-1H7.07v.77H3.27a.27.27,0,0,0,0,.53H6.29a1,1,0,0,1,.63.22A1,1,0,0,1,7.34,15.8Z"/><path class="cls-2" d="M12.63,14.52a1.17,1.17,0,0,0-.2-.5,1.27,1.27,0,0,0-1.06-.58h-3V12.1h-.9v4.78h3.94a1.28,1.28,0,0,0,1.06-.57,1,1,0,0,0,.1-.17,1.33,1.33,0,0,0,.11-.54v-.88A1.27,1.27,0,0,0,12.63,14.52Zm-.83,1a.55.55,0,0,1-.26.47.6.6,0,0,1-.29.08H8.33V14.22h2.92a.55.55,0,0,1,.55.56Z"/><path class="cls-3" d="M10.16,8.69l.25,0-.11.1A1.85,1.85,0,0,1,10.16,8.69Z"/><path class="cls-4" d="M13.33,10.43l-.17,0,.06-.12A.91.91,0,0,0,13.33,10.43Z"/><path class="cls-4" d="M13.33,10.43l-.17,0,.06-.12A.91.91,0,0,0,13.33,10.43Z"/><path class="cls-3" d="M12.08,6.56a7.08,7.08,0,0,0,.1,1.13,7,7,0,0,0-1.77,1l-.25,0A6.63,6.63,0,0,1,8.17,4,6.51,6.51,0,0,1,8.85,1a6.64,6.64,0,0,1,3.86,2.72A6.66,6.66,0,0,0,12.08,6.56Z"/><path class="cls-5" d="M13.22,10.27a6.82,6.82,0,0,0,.57-2,6.8,6.8,0,0,0,1.72-1A6.66,6.66,0,0,1,19.14,9l.08.07a6.67,6.67,0,0,1-4.13,3,6.83,6.83,0,0,1-1.58.18,6.75,6.75,0,0,1-1.57-.18,6.65,6.65,0,0,1-3-1.66A6.57,6.57,0,0,1,10.3,8.83a6.68,6.68,0,0,0,2.86,1.56"/><path class="cls-6" d="M13.79,8.31a7.92,7.92,0,0,0,.05-.85V7.28a6.81,6.81,0,0,1,.78,0,6.54,6.54,0,0,1,.89.06A6.8,6.8,0,0,1,13.79,8.31Z"/><path class="cls-7" d="M18,2.14a6.64,6.64,0,0,1-2.45,5.15,6.54,6.54,0,0,0-.89-.06,6.81,6.81,0,0,0-.78,0,6.72,6.72,0,0,0-1.13-3.54A6.68,6.68,0,0,1,17.17.09L17.61,0a4.61,4.61,0,0,1,.15.53A6.57,6.57,0,0,1,18,2.14Z"/><path class="cls-8" d="M13.84,7.28a7,7,0,0,0-1.66.41,7.08,7.08,0,0,1-.1-1.13,6.66,6.66,0,0,1,.63-2.82A6.72,6.72,0,0,1,13.84,7.28Z"/><path class="cls-9" d="M13.84,7.46a7.92,7.92,0,0,1-.05.85,6.3,6.3,0,0,1-1.35.38,6.37,6.37,0,0,1-.26-1,7,7,0,0,1,1.66-.41Z"/><path class="cls-10" d="M13.79,8.31a6.82,6.82,0,0,1-.57,2l-.06.12A6.68,6.68,0,0,1,10.3,8.83l.11-.1a7,7,0,0,1,1.77-1,6.37,6.37,0,0,0,.26,1A6.3,6.3,0,0,0,13.79,8.31Z"/></g></g></svg>