<svg xmlns="http://www.w3.org/2000/svg" viewBox="0 0 13.5 16.87"><defs><style>.cls-1{fill:#fff;}</style></defs><title>Recurso 23</title><g id="Capa_2" data-name="Capa 2"><g id="Capa_3" data-name="Capa 3"><path class="cls-1" d="M13.5,8.44V2a2,2,0,0,0-2-2H2A2,2,0,0,0,0,2V14.84a2,2,0,0,0,2,2h9.43a2.21,2.21,0,0,0,.51-.05,2,2,0,0,0,1.53-2Zm-2.08,7.87H2.08A1.42,1.42,0,0,1,.56,14.8V2.08A1.42,1.42,0,0,1,2.08.56h9.34a1.42,1.42,0,0,1,1.52,1.52V14.8A1.42,1.42,0,0,1,11.42,16.31Z"/><path class="cls-1" d="M12.37,2a.83.83,0,0,0-.89-.88H2a.84.84,0,0,0-.89.9c0,.7,0,1.41,0,2.11a.84.84,0,0,0,.93.92h9.42a.83.83,0,0,0,.89-.89Q12.39,3.09,12.37,2Zm-.56,2.14c0,.25-.1.35-.35.35H2.08c-.3,0-.39-.09-.39-.38V2.06c0-.28.09-.37.36-.37h9.4c.26,0,.36.09.36.35Z"/><path class="cls-1" d="M12.37,10.44a.83.83,0,0,0-.87-.88H9.87a.84.84,0,0,0-.87.88v4.43a.85.85,0,0,0,.89.88h1.56a.85.85,0,0,0,.92-.93V12.67C12.37,11.93,12.38,11.18,12.37,10.44Zm-.56,4.38c0,.27-.09.36-.36.36H9.91c-.25,0-.35-.1-.35-.35V10.49c0-.27.09-.37.37-.37h1.53c.26,0,.35.1.35.37Z"/><path class="cls-1" d="M4.5,7a.84.84,0,0,0-.84-.83c-.28,0-.56,0-.84,0s-.58,0-.87,0A.83.83,0,0,0,1.13,7c0,.38,0,.77,0,1.16A.84.84,0,0,0,2,9H3.67a.84.84,0,0,0,.83-.83ZM3.94,8.11c0,.22-.11.32-.34.33H2c-.23,0-.33-.11-.33-.34v-1c0-.22.11-.32.33-.32H3.61a.29.29,0,0,1,.33.32Z"/><path class="cls-1" d="M8.44,7.05a.84.84,0,0,0-.87-.86q-.83,0-1.65,0A.84.84,0,0,0,5.06,7V8.15A.85.85,0,0,0,5.91,9H7.58a.85.85,0,0,0,.86-.86ZM7.87,8.11c0,.22-.1.32-.33.33H6c-.23,0-.33-.11-.33-.34s0-.69,0-1A.28.28,0,0,1,6,6.75h1.6a.28.28,0,0,1,.32.32C7.88,7.42,7.88,7.76,7.87,8.11Z"/><path class="cls-1" d="M12.37,7a.82.82,0,0,0-.84-.83c-.28,0-.56,0-.84,0s-.55,0-.83,0A.84.84,0,0,0,9,7V8.15A.84.84,0,0,0,9.84,9h1.69a.84.84,0,0,0,.84-.84Q12.39,7.59,12.37,7Zm-.56,1.1c0,.21-.11.31-.32.32H9.9c-.23,0-.34-.11-.34-.33v-1c0-.22.11-.32.33-.32h1.59c.22,0,.33.1.33.32Z"/><path class="cls-1" d="M4.5,10.41a.85.85,0,0,0-.85-.85H2a.83.83,0,0,0-.85.86q0,.54,0,1.08a.83.83,0,0,0,.86.87q.83,0,1.65,0a.84.84,0,0,0,.86-.85Zm-.56,1.07a.29.29,0,0,1-.32.33H2a.28.28,0,0,1-.31-.32V10.44c0-.21.11-.31.33-.32H3.61c.22,0,.33.11.33.33Z"/><path class="cls-1" d="M8.44,10.42a.85.85,0,0,0-.86-.86H5.91a.85.85,0,0,0-.85.85v1.1a.84.84,0,0,0,.86.86c.27,0,.55,0,.82,0h.83a.84.84,0,0,0,.87-.86Zm-.57,1.06c0,.22-.1.33-.32.33H5.94a.28.28,0,0,1-.31-.32q0-.53,0-1.05c0-.21.1-.31.33-.32H7.55c.22,0,.32.11.32.33S7.88,11.14,7.87,11.48Z"/><path class="cls-1" d="M4.5,13.75a.82.82,0,0,0-.83-.81H2a.82.82,0,0,0-.82.83q0,.57,0,1.14a.84.84,0,0,0,.84.84h1.7a.85.85,0,0,0,.83-.82C4.51,14.54,4.51,14.15,4.5,13.75Zm-.56,1.12a.28.28,0,0,1-.32.31H2c-.23,0-.33-.1-.33-.33v-1A.28.28,0,0,1,2,13.5h1.6c.22,0,.33.1.33.32Z"/><path class="cls-1" d="M8.44,13.77a.83.83,0,0,0-.84-.83H5.91a.83.83,0,0,0-.85.84v1.11a.85.85,0,0,0,.86.86H7.61a.84.84,0,0,0,.83-.83Zm-.57,1.1a.28.28,0,0,1-.31.31H6c-.23,0-.33-.1-.33-.32s0-.69,0-1A.28.28,0,0,1,6,13.5H7.56a.28.28,0,0,1,.31.32Q7.89,14.35,7.87,14.87Z"/><path class="cls-1" d="M11.53,2.79a.85.85,0,0,0-1.69,0V3.4a.85.85,0,0,0,1.69,0V2.79ZM11,3.38a.28.28,0,1,1-.56,0,2.61,2.61,0,0,1,0-.28c0-.1,0-.2,0-.3a.28.28,0,0,1,.27-.27A.27.27,0,0,1,11,2.8C11,3,11,3.19,11,3.38Z"/></g></g></svg>