<svg xmlns="http://www.w3.org/2000/svg" viewBox="0 0 15.75 19.29"><defs><style>.cls-1{fill:#fff;}</style></defs><title>Recurso 20</title><g id="Capa_2" data-name="Capa 2"><g id="Capa_3" data-name="Capa 3"><path class="cls-1" d="M12.1,0a2.58,2.58,0,0,1,.37.19,1,1,0,0,1,.38.81v9.77c0,.31-.09.45-.29.46s-.31-.14-.31-.46V1.11c0-.41-.1-.51-.5-.51H1.11c-.4,0-.5.1-.5.51V14.32c0,.39.1.49.49.49H6.26l.22,0a.27.27,0,0,1,.24.31.27.27,0,0,1-.26.27H6.27c-1.72,0-3.45,0-5.18,0A1,1,0,0,1,0,14.33Q0,7.78,0,1.22A1.12,1.12,0,0,1,.76,0Z"/><path class="cls-1" d="M8.05,4.51h2.61a.29.29,0,0,1,.05.57.83.83,0,0,1-.22,0H5.59a.83.83,0,0,1-.22,0,.27.27,0,0,1-.2-.3.28.28,0,0,1,.24-.27H8.05Z"/><path class="cls-1" d="M3.21,12.52A1.27,1.27,0,0,1,3.15,10a.33.33,0,0,1,.36.26c0,.18-.11.31-.33.34a.66.66,0,0,0-.63.61.66.66,0,0,0,1.3.2,1.25,1.25,0,0,0,0-.19A.3.3,0,0,1,4.2,11a.31.31,0,0,1,.28.32A1.29,1.29,0,0,1,3.21,12.52Z"/><path class="cls-1" d="M3.21,9a1.26,1.26,0,0,1-.06-2.52.31.31,0,0,1,.36.28c0,.17-.12.29-.33.32a.66.66,0,0,0-.63.6.66.66,0,0,0,1.3.2l0-.18a.29.29,0,0,1,.34-.25.31.31,0,0,1,.26.32A1.27,1.27,0,0,1,3.21,9Z"/><path class="cls-1" d="M3.2,5.43a1.26,1.26,0,0,1-.09-2.52c.23,0,.38.08.4.27s-.12.3-.34.32A.65.65,0,0,0,2.58,4a.63.63,0,0,0,.22.7.65.65,0,0,0,.74.06.61.61,0,0,0,.31-.44l0-.17a.3.3,0,0,1,.59.08A1.27,1.27,0,0,1,3.2,5.43Z"/><path class="cls-1" d="M7.39,3.83H5.61a.86.86,0,0,1-.23,0,.26.26,0,0,1-.21-.27.26.26,0,0,1,.21-.29.86.86,0,0,1,.23,0H9.18a.86.86,0,0,1,.23,0,.26.26,0,0,1,.21.29.25.25,0,0,1-.21.27.86.86,0,0,1-.23,0Z"/><path class="cls-1" d="M6.61,10.31h1c.23,0,.36.11.37.29s-.14.31-.37.31H5.54c-.24,0-.37-.11-.37-.3s.13-.3.37-.3Z"/><path class="cls-1" d="M6.58,6.77H7.69c.27,0,.41.24.28.45a.31.31,0,0,1-.29.15H5.5a.3.3,0,1,1,0-.6Z"/><path class="cls-1" d="M6.59,8.06H7.65c.23,0,.36.11.37.28s-.14.32-.37.32H5.52c-.22,0-.35-.12-.35-.31s.13-.29.35-.29Z"/><path class="cls-1" d="M6.29,11.6H7a.31.31,0,0,1,.33.28.3.3,0,0,1-.32.32q-.78,0-1.56,0a.3.3,0,0,1-.32-.32c0-.17.13-.28.33-.28Z"/><path class="cls-1" d="M15.75,13.42a1.12,1.12,0,0,0-1.69-1c-.08.05-.11,0-.16,0a1.06,1.06,0,0,0-1.45-.28c-.06,0-.09.05-.14,0a1.08,1.08,0,0,0-1.39-.37V8a1.11,1.11,0,0,0-1.55-1.1A1.13,1.13,0,0,0,8.71,8q0,1.8,0,3.6a.41.41,0,0,1-.14.34c-.28.26-.55.53-.81.82A1.8,1.8,0,0,0,7.3,14.4c.21,1,.44,1.93.68,2.89a2.55,2.55,0,0,0,2.57,2h2.56a2.58,2.58,0,0,0,2.64-2.64V13.42Zm-.6,3.24a2,2,0,0,1-2,2H10.55a2,2,0,0,1-2-1.59c-.22-.91-.43-1.83-.64-2.74a1.27,1.27,0,0,1,.35-1.28l.44-.45v.93q0,.42.3.42c.2,0,.31-.15.31-.41V8a.8.8,0,0,1,.09-.43.47.47,0,0,1,.5-.23.46.46,0,0,1,.39.36,1.33,1.33,0,0,1,0,.28v5c0,.31.09.45.29.45s.31-.15.31-.45v-.35a.49.49,0,0,1,1,0,4.61,4.61,0,0,1,0,.64,1.77,1.77,0,0,0,0,.23.31.31,0,0,0,.31.31.3.3,0,0,0,.28-.32c0-.19,0-.37,0-.56a.42.42,0,0,1,.34-.38.44.44,0,0,1,.49.14.56.56,0,0,1,.15.41v.66c0,.24.13.37.32.37s.28-.14.29-.37,0-.27,0-.41a.49.49,0,0,1,1-.08,1,1,0,0,1,0,.24C15.15,14.56,15.15,15.61,15.15,16.66Z"/></g></g></svg>