<svg xmlns="http://www.w3.org/2000/svg" viewBox="0 0 15.92 18.79"><defs><style>.cls-1{fill:#0b78ce;}.cls-2{fill:#fff;}</style></defs><title>Recurso 21</title><g id="Capa_2" data-name="Capa 2"><g id="Capa_3" data-name="Capa 3"><path class="cls-1" d="M8.25,0a3.89,3.89,0,0,1,.88.27A2.64,2.64,0,0,1,10.56,2a.22.22,0,0,0,.18.18c.88.19,1.75.4,2.62.61.28.06.37.21.31.49s-.13.56-.21.86c.18,0,.34,0,.5,0a.36.36,0,0,1,.34.18l.93,1.55a.42.42,0,0,1,.06.21l.27,5.4q.16,3.39.35,6.76a1.61,1.61,0,0,1,0,.22.31.31,0,0,1-.31.32H.49c-.42,0-.51-.1-.49-.52l.33-6.39c.1-1.86.2-3.73.29-5.59a1.16,1.16,0,0,1,.17-.6c.28-.43.53-.87.79-1.32A.4.4,0,0,1,2,4.14c.15,0,.15,0,.14-.16C2,3.33,2,2.69,1.89,2.05c0-.29.06-.43.36-.46l3.24-.38A.48.48,0,0,0,5.86,1,2.67,2.67,0,0,1,7.5,0s.07,0,.09,0Z"/><path class="cls-2" d="M8,18.15H.86c-.17,0-.21-.05-.21-.21.1-1.79.19-3.57.29-5.35.06-1.29.13-2.58.19-3.87,0-.74.08-1.49.11-2.23,0-.09,0-.14.13-.13H14.43c.2,0,.24,0,.25.24.08,1.81.18,3.62.27,5.44.07,1.29.13,2.59.2,3.88,0,.68.07,1.36.11,2,0,.15,0,.2-.19.2Z"/><path class="cls-2" d="M3.74,5.73c-.21,0-.42,0-.63,0S3,5.7,3,5.58C2.89,5,2.82,4.5,2.75,4s-.11-1-.18-1.56c0-.17,0-.22.19-.24l4-.46h.15c.37,0,.37,0,.42.33s.1,1,.16,1.42c0,.13,0,.16-.13.18l-2.65.64c-.39.09-.46.2-.37.59s.12.51.19.76c0,.1,0,.12-.09.12Z"/><path class="cls-2" d="M9.11,3.19c.05-.23.1-.43.14-.63s.07-.07.13-.05l3.49.82c.11,0,.12.06.09.16-.16.7-.33,1.4-.49,2.1,0,.11-.06.14-.17.14H10.73a.15.15,0,0,1-.17-.14l-.51-2.15C10,3.09,9.84,3,9.49,3.1Z"/><path class="cls-2" d="M7.53,5.73H5.33c-.13,0-.18,0-.2-.16S5,5.19,5,5s0-.17.11-.2L9,3.89l.39-.1c.08,0,.13,0,.16.08.13.59.27,1.17.41,1.75,0,.15-.06.11-.12.11Z"/><path class="cls-2" d="M6.74,1.06A2,2,0,0,1,9.87,2l-.64-.15c-.33-.08-.46,0-.54.34s-.17.71-.24,1.07c0,.19-.19.17-.3.18s-.07-.12-.08-.19C8,2.58,7.92,1.94,7.84,1.29A.32.32,0,0,0,7.44,1Z"/><path class="cls-1" d="M10,9.6A5.42,5.42,0,0,1,10,9a.25.25,0,0,0-.15-.25.92.92,0,0,1-.46-1.06,1,1,0,0,1,1.85,0,.92.92,0,0,1-.45,1,.29.29,0,0,0-.16.29,10.26,10.26,0,0,1,0,1.24,2.7,2.7,0,0,1-5.37,0c0-.43,0-.85,0-1.28a.22.22,0,0,0-.13-.23.94.94,0,0,1-.46-1.12,1,1,0,0,1,1.86.23.9.9,0,0,1-.5.89A.22.22,0,0,0,5.89,9a9.8,9.8,0,0,0,0,1.43A2.07,2.07,0,0,0,10,10.14V9.6Z"/></g></g></svg>