<svg xmlns="http://www.w3.org/2000/svg" viewBox="0 0 23.63 26.97"><defs><style>.cls-1{fill:#0b78ce;}</style></defs><title>Recurso 3</title><g id="Capa_2" data-name="Capa 2"><g id="Capa_3" data-name="Capa 3"><path class="cls-1" d="M23.62,8.91c0-1.46.15-1-.59-2.31L19.66.78A1.47,1.47,0,0,0,18.32,0h-13A1.48,1.48,0,0,0,4,.79L.27,7.19a2,2,0,0,0-.27,1V25a1.88,1.88,0,0,0,1.66,2H22a1.71,1.71,0,0,0,1.45-1,2.48,2.48,0,0,0,.21-1.08C23.62,19.55,23.63,14.23,23.62,8.91Zm-11-7.1c0-.16,0-.21.2-.21,1.74,0,3.49,0,5.23,0a.26.26,0,0,1,.25.14Q19.7,4.17,21.12,6.6s0,.05,0,.11H12.87c-.17,0-.24,0-.24-.22C12.64,4.93,12.63,3.37,12.63,1.81ZM3.27,5.3c.67-1.16,1.34-2.32,2-3.48a.37.37,0,0,1,.36-.22q2.58,0,5.16,0c.23,0,.27.06.27.27,0,1.54,0,3.07,0,4.61,0,.15,0,.23-.2.23H2.59l-.12,0ZM22,24.92c0,.4-.07.47-.48.47H2.13c-.4,0-.47-.06-.47-.47q0-8.19,0-16.37c0-.21.05-.27.27-.27H21.68c.21,0,.29,0,.29.27C22,14,22,19.46,22,24.92Z"/><path class="cls-1" d="M10.77,19.66a.71.71,0,0,1-.57-.23L8.3,17.54a.79.79,0,0,1,0-1.13.78.78,0,0,1,1.13,0c.38.37.77.74,1.13,1.14.17.19.26.15.42,0,1.06-1.08,2.14-2.15,3.21-3.23a.92.92,0,0,1,.64-.32.76.76,0,0,1,.71.41.74.74,0,0,1,0,.82.82.82,0,0,1-.17.2l-3.9,3.91A.86.86,0,0,1,10.77,19.66Z"/></g></g></svg>