<svg xmlns="http://www.w3.org/2000/svg" viewBox="0 0 21.04 25.26"><defs><style>.cls-1{fill:#fff;}</style></defs><title>Recurso 13</title><g id="Capa_2" data-name="Capa 2"><g id="Capa_3" data-name="Capa 3"><path class="cls-1" d="M20.79,5.9C18.91,4,17,2.14,15.15.25A.8.8,0,0,0,14.54,0H3.05c-.37,0-.52.16-.52.53s0,.62,0,.94-.06.22-.23.22H.57c-.42,0-.57.14-.57.56V24.7a.54.54,0,0,0,.31.56h17.9a.57.57,0,0,0,.3-.57c0-.56,0-1.12,0-1.68,0-.25.07-.29.3-.28.54,0,1.08,0,1.63,0s.6-.13.6-.59q0-7.83,0-15.65A.78.78,0,0,0,20.79,5.9ZM15.15,1.56a.1.1,0,0,1,0,0l4.36,4.37H15.33c-.13,0-.19,0-.18-.17ZM17.67,23q0,.63,0,1.26c0,.13,0,.16-.16.16-.51,0-1,0-1.51,0-5,0-9.92,0-14.89,0-.23,0-.27-.07-.27-.28,0-3.56,0-7.12,0-10.68s0-7.12,0-10.68c0-.22.06-.27.27-.26a11.61,11.61,0,0,0,1.18,0c.21,0,.24.06.24.25V22.12c0,.49.13.61.61.61H17.41C17.64,22.73,17.68,22.79,17.67,23Zm2.52-1.35c0,.18,0,.25-.23.25H3.59c-.21,0-.23-.09-.23-.26q0-5.13,0-10.28c0-3.42,0-6.83,0-10.25,0-.21,0-.27.26-.27,3.48,0,7,0,10.43,0,.22,0,.26.06.26.27,0,1.67,0,3.35,0,5,0,.47.12.6.59.6H20c.2,0,.24.06.23.25Z"/><path class="cls-1" d="M13,18.1h5.12a.43.43,0,0,1,.36.41.42.42,0,0,1-.34.41,1.11,1.11,0,0,1-.26,0H8a.43.43,0,0,1-.44-.42A.42.42,0,0,1,8,18.11h5Z"/><path class="cls-1" d="M13.06,13.05h4.82c.43,0,.63.14.63.43s-.21.42-.63.42H8.2c-.42,0-.63-.15-.62-.43s.2-.42.63-.42Z"/><path class="cls-1" d="M13.06,15.58h5.1a.38.38,0,0,1,.34.39.39.39,0,0,1-.28.41,1,1,0,0,1-.29,0H8.15a.82.82,0,0,1-.22,0A.41.41,0,0,1,8,15.59c.3,0,.6,0,.89,0Z"/><path class="cls-1" d="M13,8.84H8.1c-.22,0-.41-.05-.49-.28A.4.4,0,0,1,7.86,8a.87.87,0,0,1,.32,0h9.73a.82.82,0,0,1,.31,0,.41.41,0,0,1-.07.8H13Z"/><path class="cls-1" d="M13,11.36H8A.42.42,0,0,1,7.58,11a.42.42,0,0,1,.4-.42H17.9a1.12,1.12,0,0,1,.32,0,.38.38,0,0,1,.28.41.39.39,0,0,1-.32.38,1.43,1.43,0,0,1-.29,0Z"/><path class="cls-1" d="M5.88,8.83H5.44A.41.41,0,0,1,5.38,8a3.49,3.49,0,0,1,1,0,.38.38,0,0,1,.32.43.4.4,0,0,1-.4.38H5.88Z"/><path class="cls-1" d="M5.89,16.42a3.2,3.2,0,0,1-.44,0,.42.42,0,1,1,0-.83H6.3a.42.42,0,0,1,0,.83A3.23,3.23,0,0,1,5.89,16.42Z"/><path class="cls-1" d="M5.89,18.11h.45a.41.41,0,0,1,0,.82,6.91,6.91,0,0,1-.91,0,.41.41,0,0,1-.38-.41.42.42,0,0,1,.4-.41Z"/><path class="cls-1" d="M5.87,11.36H5.43A.39.39,0,0,1,5.05,11a.39.39,0,0,1,.33-.42,3.17,3.17,0,0,1,1,0,.38.38,0,0,1,.32.43.37.37,0,0,1-.36.37,4,4,0,0,1-.49,0Z"/><path class="cls-1" d="M5.88,13c.18,0,.34,0,.5,0a.37.37,0,0,1,.34.39.37.37,0,0,1-.31.41,3.36,3.36,0,0,1-1,0,.36.36,0,0,1-.3-.39.37.37,0,0,1,.32-.4Z"/><path class="cls-1" d="M8.41,5.48V4.3c0-.35-.15-.5-.49-.5H5.55c-.34,0-.5.15-.5.49,0,.79,0,1.58,0,2.36,0,.35.16.5.5.51H7.91a.44.44,0,0,0,.5-.5Zm-1,.84q-.69,0-1.38,0c-.1,0-.16,0-.16-.14q0-.7,0-1.41c0-.1,0-.14.14-.14h1.4c.13,0,.15,0,.15.16s0,.46,0,.69,0,.46,0,.69S7.54,6.32,7.42,6.32Z"/></g></g></svg>