<svg xmlns="http://www.w3.org/2000/svg" viewBox="0 0 21.1 22.56"><defs><style>.cls-1{fill:#fff;}</style></defs><title>Recurso 9</title><g id="Capa_2" data-name="Capa 2"><g id="Capa_3" data-name="Capa 3"><path class="cls-1" d="M18.59,13.32c0-.11.05-.22.08-.33a1.27,1.27,0,0,1,1.2-1,.78.78,0,0,1,.81.3,1.44,1.44,0,0,1,.38,1.41,11.37,11.37,0,0,1-1.19,3.37.86.86,0,0,1-.09.27A11,11,0,0,1,16.24,21a1,1,0,0,1-.29.11,11.7,11.7,0,0,1-3,1.14,13.29,13.29,0,0,1-2.51.27,1.41,1.41,0,0,1-1.05-.06,12.71,12.71,0,0,1-2.21-.53l-1-.36a1.69,1.69,0,0,1-.77-.35s0-.07-.07-.09a13,13,0,0,1-2.26-1.71,1.46,1.46,0,0,1-.59-.66A12.49,12.49,0,0,1,1,16.29a1.26,1.26,0,0,1-.34-.81,13.12,13.12,0,0,1-.59-3c0-.29-.06-.59-.08-.88a2,2,0,0,1,.14-1A10.5,10.5,0,0,1,5.41,2.72a10.24,10.24,0,0,1,3.94-1.3l.2,0a.62.62,0,0,1,.42-.1,5.81,5.81,0,0,0,.72-.05c.43.09.86.05,1.3.11a12.31,12.31,0,0,1,2.08.48c.34.14.7.27,1,.42s.41.21.62.3c-.11-.29-.1-.61-.18-.9A1.33,1.33,0,0,1,16.63,0a1.23,1.23,0,0,1,.63.05,1.37,1.37,0,0,1,.91,1.14c.09.58.2,1.16.3,1.74a4.62,4.62,0,0,1,.11,1c.07.44.13.88.21,1.31a1.27,1.27,0,0,1-1.1,1.6l-2.6.46a5.49,5.49,0,0,1-1.32.3,2.07,2.07,0,0,1-.86,0,1.35,1.35,0,0,1-1-1.28,1.31,1.31,0,0,1,1-1.26c.47-.12,1-.17,1.51-.29A11.21,11.21,0,0,0,13,4.28,6.29,6.29,0,0,0,12.09,4a8,8,0,0,0-4.57.5A7.77,7.77,0,0,0,3.28,8.78a8.09,8.09,0,0,0-.49,4.56,7.54,7.54,0,0,0,.22.94,7.73,7.73,0,0,0,1.37,2.6c.14.28.46.41.55.71a6.92,6.92,0,0,0,2.46,1.68,2.11,2.11,0,0,1,.87.34,7.51,7.51,0,0,0,3.79.23c.56-.23,1.17-.3,1.71-.56a7.93,7.93,0,0,0,4.31-4.37,8.1,8.1,0,0,0,.39-1.27A.9.9,0,0,1,18.59,13.32Z"/></g></g></svg>