<svg xmlns="http://www.w3.org/2000/svg" viewBox="0 0 20.44 24.99"><defs><style>.cls-1{fill:#fff;}</style></defs><title>Recurso 12</title><g id="Capa_2" data-name="Capa 2"><g id="Capa_3" data-name="Capa 3"><path class="cls-1" d="M.42,25h16c.1,0,.22,0,.31,0H.43S.41,25,.42,25Z"/><path class="cls-1" d="M11.59,20.82H3.41c-.38,0-.61-.19-.59-.48a.47.47,0,0,1,.41-.44,2.43,2.43,0,0,1,.27,0H17.07c.32,0,.52.18.53.45a.48.48,0,0,1-.54.47H11.59Z"/><path class="cls-1" d="M11.59,9.73H3.48a1.41,1.41,0,0,1-.29,0,.43.43,0,0,1-.37-.41.44.44,0,0,1,.28-.45.8.8,0,0,1,.34,0H17a.83.83,0,0,1,.31,0,.45.45,0,0,1-.08.87,1.51,1.51,0,0,1-.3,0Z"/><path class="cls-1" d="M20.44,7.24a1.08,1.08,0,0,0-.35-.86c-2-2-4.06-4-6.09-6.08a.91.91,0,0,0-.71-.3H.49C.16,0,.05.14,0,.48s0,.93,0,1.39v.92a.71.71,0,0,1,0,.32V24.45c0,.42.09.51.46.52H16.36a.7.7,0,0,1,.32,0h.92c.08,0,.17,0,.26,0H20c.3,0,.39-.15.42-.43a2.44,2.44,0,0,0,0-.27ZM13.91,1.71s0,0,0,0L18.74,6.5H14.13c-.11,0-.22,0-.22-.16C13.92,4.8,13.91,3.25,13.91,1.71Zm5.54,22.1c0,.2,0,.26-.25.26q-9,0-18,0C1,24.07,1,24,1,23.8V12.48C1,8.73,1,5,1,1.22,1,1,1,1,1.25,1Q7,1,12.7,1C13,1,13,1,13,1.26c0,1.84,0,3.68,0,5.52,0,.5.14.65.64.65h5.55c.2,0,.27,0,.27.26Z"/><path class="cls-1" d="M11.59,15.28H3.51c-.46,0-.69-.15-.69-.46s.22-.47.68-.47H17.15a.47.47,0,0,1,.45.45.45.45,0,0,1-.44.46,1.22,1.22,0,0,1-.27,0Z"/><path class="cls-1" d="M11.61,17.13h5.54a.45.45,0,0,1,.45.42.47.47,0,0,1-.39.48,1.23,1.23,0,0,1-.27,0H3.4c-.36,0-.58-.18-.59-.46s.22-.46.58-.46Z"/><path class="cls-1" d="M11.59,12.5H3.29a.47.47,0,0,1-.47-.46.47.47,0,0,1,.44-.46H16.91a1.17,1.17,0,0,1,.37,0,.45.45,0,0,1,0,.86,1.17,1.17,0,0,1-.32,0Z"/><path class="cls-1" d="M6,4.2H3.36c-.36,0-.54.17-.54.52,0,.88,0,1.75,0,2.63a.47.47,0,0,0,.53.53H6a.46.46,0,0,0,.53-.53c0-.87,0-1.75,0-2.62C6.51,4.35,6.34,4.2,6,4.2ZM5.43,7H3.89c-.13,0-.15,0-.15-.16V5.27c0-.12,0-.16.15-.15H5.43c.13,0,.16,0,.16.18s0,.5,0,.75,0,.51,0,.76S5.56,7,5.43,7Z"/></g></g></svg>