<svg xmlns="http://www.w3.org/2000/svg" viewBox="0 0 26.91 26.86"><defs><style>.cls-1{fill:#0b78ce;}</style></defs><title>Recurso 2</title><g id="Capa_2" data-name="Capa 2"><g id="Capa_3" data-name="Capa 3"><path class="cls-1" d="M0,13.6a.24.24,0,0,1,0,.32Z"/><path class="cls-1" d="M.05,12.71v.21s0,0,0,0v-.21S0,12.69.05,12.71Z"/><path class="cls-1" d="M0,12.92H.05c0,.07,0,.15,0,.21Z"/><path class="cls-1" d="M.05,12.71H0V12.6C.06,12.62.05,12.66.05,12.71Z"/><path class="cls-1" d="M0,14.18c.06,0,.08.07,0,.1Z"/><path class="cls-1" d="M26.91,2.49l-.19.2L21.41,8c-.36.36-.36.36-.72,0L17.1,4.41c-.12-.12-.14-.19,0-.32.39-.37.78-.75,1.15-1.15.16-.17.23-.14.38,0,.74.76,1.51,1.51,2.25,2.27.14.14.21.15.35,0,1.33-1.35,2.68-2.68,4-4,.12-.13.19-.15.32,0,.39.41.79.8,1.19,1.19Z"/><path class="cls-1" d="M26.42,10A11.76,11.76,0,0,0,25.29,7.1c-.48.47-.93.94-1.4,1.38a.31.31,0,0,0-.07.43,11,11,0,0,1,.91,5.6,11.14,11.14,0,0,1-1.59,4.81A9.92,9.92,0,0,1,22,20.91a8.78,8.78,0,0,0-5-6.06,5.23,5.23,0,1,0-7.06,0A8.87,8.87,0,0,0,4.9,21l-.07-.14a11.09,11.09,0,0,1-2.6-9A11,11,0,0,1,7.25,4,11,11,0,0,1,14.9,2.21c.33,0,.68.23,1,.1s.49-.45.73-.69l1-.95A13.55,13.55,0,0,0,11.62.12,13.28,13.28,0,0,0,4,3.87a13.12,13.12,0,0,0-3.93,8,1,1,0,0,1-.1.47v.26s0,.09,0,.14v.18c0,.07,0,.14,0,.21v.47a.44.44,0,0,1,0,.32v.26a.07.07,0,0,1,0,.1v.27c.07,0,.05.08.05.13A12.93,12.93,0,0,0,3.3,22.26,13.15,13.15,0,0,0,16.13,26.6a12.44,12.44,0,0,0,7.53-4.44A13.2,13.2,0,0,0,26.42,10ZM13.53,7.88A3.11,3.11,0,1,1,10.33,11,3.11,3.11,0,0,1,13.53,7.88Zm6.39,14.88a11.3,11.3,0,0,1-13,0,.3.3,0,0,1-.12-.31A6.5,6.5,0,0,1,9.4,17.59a6.29,6.29,0,0,1,4.66-1.35,6.63,6.63,0,0,1,6,6.19A.31.31,0,0,1,19.92,22.76Z"/></g></g></svg>