<svg xmlns="http://www.w3.org/2000/svg" viewBox="0 0 17.55 19.55"><defs><style>.cls-1{fill:#0bafea;}.cls-2{fill:none;stroke:#000;stroke-miterlimit:10;}.cls-3{fill:#ffdf07;}.cls-4{fill:#ff8708;}.cls-5{fill:#d4e00a;}.cls-6{fill:#4f8bc7;}.cls-7{fill:#d38ebf;}.cls-8{fill:#f70a0b;}</style></defs><title>Recurso 19</title><g id="Capa_2" data-name="Capa 2"><g id="Capa_3" data-name="Capa 3"><path class="cls-1" d="M3.16,13.81l.41.06L3.39,14Z"/><path class="cls-2" d="M8.2,16.57l-.26-.06c0-.07.06-.13.08-.19Z"/><path class="cls-2" d="M8.2,16.57l-.26-.06c0-.07.06-.13.08-.19Z"/><path class="cls-1" d="M6.22,10.42a9.72,9.72,0,0,0,.16,1.8,10.82,10.82,0,0,0-2.81,1.65l-.41-.06A10.58,10.58,0,0,1,1.08,1.61,10.59,10.59,0,0,1,7.21,6,10.56,10.56,0,0,0,6.22,10.42Z"/><path class="cls-3" d="M8,16.32a10.23,10.23,0,0,0,.91-3.12,10.39,10.39,0,0,0,2.73-1.61,10.44,10.44,0,0,1,5.77,2.72l.12.11A10.53,10.53,0,0,1,11,19.25a10.57,10.57,0,0,1-5,0,10.54,10.54,0,0,1-4.8-2.63A10.55,10.55,0,0,1,3.39,14a10.57,10.57,0,0,0,4.55,2.49"/><path class="cls-4" d="M8.93,13.2A11.94,11.94,0,0,0,9,11.85v-.29c.41,0,.82-.07,1.24-.07a9.36,9.36,0,0,1,1.41.1A10.39,10.39,0,0,1,8.93,13.2Z"/><path class="cls-5" d="M15.55,3.4a10.54,10.54,0,0,1-3.89,8.19,9.36,9.36,0,0,0-1.41-.1c-.42,0-.83,0-1.24.07A10.53,10.53,0,0,0,7.21,6,10.53,10.53,0,0,1,14.3.15c.23-.06.46-.11.7-.15.09.28.17.56.24.85A10.18,10.18,0,0,1,15.55,3.4Z"/><path class="cls-6" d="M9,11.56a10.91,10.91,0,0,0-2.63.66,9.72,9.72,0,0,1-.16-1.8A10.56,10.56,0,0,1,7.21,6,10.53,10.53,0,0,1,9,11.56Z"/><path class="cls-7" d="M9,11.85a11.94,11.94,0,0,1-.08,1.35,9.81,9.81,0,0,1-2.15.61,10.27,10.27,0,0,1-.4-1.59A10.91,10.91,0,0,1,9,11.56Z"/><path class="cls-8" d="M8.93,13.2A10.23,10.23,0,0,1,8,16.32c0,.06,0,.12-.08.19A10.57,10.57,0,0,1,3.39,14l.18-.15a10.82,10.82,0,0,1,2.81-1.65,10.27,10.27,0,0,0,.4,1.59A9.81,9.81,0,0,0,8.93,13.2Z"/></g></g></svg>