<svg xmlns="http://www.w3.org/2000/svg" viewBox="0 0 23.45 24.89"><defs><style>.cls-1{fill:#fff;}</style></defs><title>Recurso 11</title><g id="Capa_2" data-name="Capa 2"><g id="Capa_3" data-name="Capa 3"><path class="cls-1" d="M23.43,8.22c0-1.34.15-.93-.59-2.12C21.74,4.3,20.62,2.51,19.5.72A1.46,1.46,0,0,0,18.17,0H5.28A1.48,1.48,0,0,0,3.93.73C2.71,2.7,1.48,4.67.27,6.64A1.7,1.7,0,0,0,0,7.56V23a1.76,1.76,0,0,0,1.65,1.86H21.79A1.69,1.69,0,0,0,23.23,24a2,2,0,0,0,.21-1Q23.44,15.6,23.43,8.22ZM12.53,1.67c0-.15,0-.19.19-.19h5.2a.24.24,0,0,1,.24.13L21,6.09s0,0,0,.1H12.77c-.17,0-.24,0-.24-.2C12.54,4.55,12.53,3.11,12.53,1.67ZM3.25,4.89c.66-1.07,1.33-2.14,2-3.21a.36.36,0,0,1,.36-.2c1.7,0,3.41,0,5.11,0,.23,0,.27.05.27.25C11,3.15,11,4.56,11,6c0,.14,0,.22-.2.22H2.45ZM21.79,23c0,.38-.06.44-.47.44H2.11c-.4,0-.46-.06-.46-.44q0-7.55,0-15.11c0-.2.05-.25.27-.25h19.6c.21,0,.29,0,.29.25Q21.78,15.45,21.79,23Z"/><path class="cls-1" d="M7.59,20.85A.6.6,0,0,1,7,20.48.65.65,0,0,1,7,19.8l.13-.15,4-4.24a.64.64,0,0,1,1.08,0q2,2.13,4,4.25a.79.79,0,0,1,.26.6.61.61,0,0,1-1,.48c-.07,0-.13-.12-.2-.18C14.22,19.3,13,18.05,11.85,16.8c-.1-.11-.15-.12-.25,0L8,20.58C7.88,20.73,7.73,20.86,7.59,20.85Z"/><path class="cls-1" d="M7.59,16.72A.61.61,0,0,1,7,16.35.64.64,0,0,1,7,15.67c0-.06.09-.1.13-.15l4-4.24a.64.64,0,0,1,1.08,0q2,2.13,4,4.25a.79.79,0,0,1,.26.6.61.61,0,0,1-1,.48c-.07-.05-.13-.12-.2-.18-1.18-1.26-2.37-2.51-3.55-3.76-.1-.11-.15-.12-.25,0C10.41,13.93,9.21,15.19,8,16.45,7.88,16.6,7.73,16.73,7.59,16.72Z"/></g></g></svg>