<svg xmlns="http://www.w3.org/2000/svg" viewBox="0 0 22.24 22.25"><defs><style>.cls-1{fill:#fff;}</style></defs><title>Recurso 8</title><g id="Capa_2" data-name="Capa 2"><g id="Capa_3" data-name="Capa 3"><path class="cls-1" d="M22.22,10.35a9.78,9.78,0,0,0-.77-3.45,11,11,0,0,0-3.22-4.39A11.17,11.17,0,0,0,13.05.11C12.68,0,12.3.05,11.93,0h-.08s-.07,0-.11,0h-.08c-.05,0-.11,0-.16,0h-.78c-.05,0-.11,0-.16,0h-.09s-.07,0-.1,0h-.13C10,0,9.78,0,9.56.05A11.13,11.13,0,0,0,2.52,4,11.13,11.13,0,0,0,.11,9.17c-.06.34-.06.69-.11,1v.17s0,.07,0,.1v.09s0,.11,0,.16v.78c0,.05,0,.11,0,.16v.08s0,.08,0,.11V12c0,.21,0,.42.05.62a10.39,10.39,0,0,0,.74,2.74,11.24,11.24,0,0,0,5.91,6,9.89,9.89,0,0,0,3.67.85,12.76,12.76,0,0,0,2.23,0,11,11,0,0,0,6.9-3.71,10.92,10.92,0,0,0,2.57-5.23A12.69,12.69,0,0,0,22.22,10.35Zm-1.39,1a9.72,9.72,0,1,1-9.55-9.91A9.76,9.76,0,0,1,20.83,11.3Z"/><path class="cls-1" d="M13.81,15.89a.69.69,0,0,1-.4.72.64.64,0,0,1-.73-.1.75.75,0,0,1-.16-.15C11,14.83,9.49,13.29,8,11.75A.76.76,0,0,1,8,10.5l4.57-4.64a.8.8,0,0,1,.64-.3.7.7,0,0,1,.51,1.09,1.07,1.07,0,0,1-.2.23L9.45,11c-.11.12-.12.18,0,.3l4.07,4.12A.78.78,0,0,1,13.81,15.89Z"/></g></g></svg>