<svg xmlns="http://www.w3.org/2000/svg" viewBox="0 0 22.08 22.06"><defs><style>.cls-1{fill:#fff;}</style></defs><title>Recurso 7</title><g id="Capa_2" data-name="Capa 2"><g id="Capa_3" data-name="Capa 3"><path class="cls-1" d="M22.06,10.14A8,8,0,0,0,21.72,8a11,11,0,0,0-2.5-4.46,10.48,10.48,0,0,0-2.35-1.95A11.67,11.67,0,0,0,13.61.26,12.31,12.31,0,0,0,10.47,0,9.07,9.07,0,0,0,8.22.33,11.08,11.08,0,0,0,2.6,3.9,11.22,11.22,0,0,0,.75,7a11,11,0,0,0-.7,5.21,10.3,10.3,0,0,0,1.37,4.3,10.89,10.89,0,0,0,2.47,3,11.11,11.11,0,0,0,4.17,2.24,9.46,9.46,0,0,0,2,.35h.17s.06,0,.09,0h.08s.06,0,.09,0h.17a.39.39,0,0,1,.26,0h.17a.28.28,0,0,1,.22,0h.21s.07,0,.1,0a.17.17,0,0,1,.12,0h.13a9.76,9.76,0,0,0,2.15-.36,10.91,10.91,0,0,0,4.46-2.5,10.53,10.53,0,0,0,1.91-2.29A11.14,11.14,0,0,0,22,13c.06-.35.07-.71.12-1.06v-.22s0-.05,0-.08,0-.07,0-.09v-.13a.19.19,0,0,1,0-.26v-.26a.18.18,0,0,1,0-.25v-.13a.07.07,0,0,1,0-.09s0-.07,0-.09v-.17A.05.05,0,0,1,22.06,10.14ZM11,20.48a9.44,9.44,0,1,1,9.46-9.43A9.45,9.45,0,0,1,11,20.48Z"/><path class="cls-1" d="M15,15.77a.84.84,0,0,1-.6-.29c-1.06-1.06-2.13-2.11-3.18-3.18-.13-.13-.19-.12-.31,0L7.72,15.49a.79.79,0,1,1-1.12-1.1L9.09,11.9c.24-.24.47-.49.72-.72s.12-.16,0-.28L6.61,7.71a.79.79,0,0,1-.25-.79.78.78,0,0,1,1.23-.44,1.19,1.19,0,0,1,.2.19l3.12,3.12c.12.12.18.12.3,0,1.06-1.08,2.13-2.14,3.2-3.22a.76.76,0,0,1,.85-.2.74.74,0,0,1,.51.66.81.81,0,0,1-.27.69l-2.7,2.69c-.16.16-.32.33-.49.48s-.13.18,0,.3l3.18,3.17a.82.82,0,0,1,.26.82A.8.8,0,0,1,15,15.77Z"/></g></g></svg>