<svg id="Capa_1" data-name="Capa 1" xmlns="http://www.w3.org/2000/svg" viewBox="0 0 24 24"><defs><style>.cls-1{fill:none;}.cls-2{fill:#fff;}</style></defs><path class="cls-1" d="M0,0H24V24H0Z"/><path class="cls-2" d="M18.93,18.46c0,.13,0,.18-.17.18H7c-.16,0-.17-.06-.17-.18q0-3.67,0-7.37t0-7.35c0-.15,0-.19.19-.19q3.74,0,7.47,0c.16,0,.19,0,.19.2,0,1.2,0,2.4,0,3.6,0,.34.08.43.42.43h3.62c.15,0,.17,0,.17.17Zm-1.8,1q0,.45,0,.9c0,.1,0,.12-.12.12H5.26c-.17,0-.2-.05-.2-.2q0-3.83,0-7.65T5.06,5c0-.16.05-.2.2-.19h.85c.14,0,.17,0,.17.17q0,3.62,0,7.21V18.8c0,.35.1.44.44.44H16.94C17.1,19.24,17.13,19.28,17.13,19.43ZM15.32,4.07V4l3.13,3.13h-3c-.1,0-.13,0-.13-.13Zm4,3.11-4-4A.57.57,0,0,0,14.88,3H6.65c-.27,0-.37.11-.38.38s0,.45,0,.67,0,.16-.17.16H4.87c-.3,0-.4.1-.4.4q0,8,0,16.09a.4.4,0,0,0,.23.4H17.51a.42.42,0,0,0,.22-.41c0-.4,0-.8,0-1.2,0-.18.05-.21.21-.2.39,0,.78,0,1.17,0s.43-.09.43-.42q0-5.61,0-11.22A.56.56,0,0,0,19.36,7.18Z"/><path class="cls-2" d="M13.8,15.92h3.67a.28.28,0,0,1,.25.29.28.28,0,0,1-.23.29.66.66,0,0,1-.2,0H10.2a.3.3,0,1,1,0-.6h3.6Z"/><path class="cls-2" d="M13.82,12.3h3.46c.3,0,.45.1.44.31s-.14.3-.45.3H10.34c-.3,0-.45-.11-.45-.31s.15-.3.45-.3Z"/><path class="cls-2" d="M13.82,14.11h3.65a.28.28,0,0,1,.25.28.27.27,0,0,1-.2.29.51.51,0,0,1-.21,0H10.15a.31.31,0,0,1-.26-.32.3.3,0,0,1,.29-.27h3.64Z"/><path class="cls-2" d="M13.8,9.28H10.27a.34.34,0,0,1-.36-.2.29.29,0,0,1,.19-.38.58.58,0,0,1,.23,0h7a.56.56,0,0,1,.22,0,.27.27,0,0,1,.2.29.28.28,0,0,1-.25.28H13.8Z"/><path class="cls-2" d="M13.8,11.09H10.2a.3.3,0,0,1-.31-.29.31.31,0,0,1,.29-.3h7.11a.85.85,0,0,1,.23,0,.26.26,0,0,1,.2.29.28.28,0,0,1-.23.27.74.74,0,0,1-.21,0Z"/><path class="cls-2" d="M8.68,9.28H8.36A.28.28,0,0,1,8.09,9a.27.27,0,0,1,.23-.31,2.24,2.24,0,0,1,.73,0A.27.27,0,0,1,9.28,9,.29.29,0,0,1,9,9.28Z"/><path class="cls-2" d="M8.68,14.71H8.37a.31.31,0,0,1-.29-.3.3.3,0,0,1,.31-.29H9a.28.28,0,0,1,.31.27.29.29,0,0,1-.28.32Z"/><path class="cls-2" d="M8.69,15.93H9a.28.28,0,0,1,.28.28.29.29,0,0,1-.27.31c-.22,0-.44,0-.65,0a.3.3,0,0,1-.28-.29.3.3,0,0,1,.29-.3h.32Z"/><path class="cls-2" d="M8.67,11.09H8.36c-.17,0-.25-.12-.28-.28a.3.3,0,0,1,.24-.3,2.24,2.24,0,0,1,.73,0,.28.28,0,0,1,.23.31.26.26,0,0,1-.26.26,2,2,0,0,1-.35,0Z"/><path class="cls-2" d="M8.68,12.3a2.17,2.17,0,0,1,.36,0,.26.26,0,0,1,.24.27.27.27,0,0,1-.22.3,2.42,2.42,0,0,1-.76,0,.27.27,0,0,1-.21-.28.26.26,0,0,1,.23-.29A2.17,2.17,0,0,1,8.68,12.3Z"/><path class="cls-2" d="M9.78,7.48c-.33,0-.66,0-1,0-.07,0-.11,0-.11-.1,0-.34,0-.67,0-1,0-.07,0-.1.1-.1.33,0,.67,0,1,0,.09,0,.11,0,.11.11s0,.33,0,.5,0,.33,0,.49S9.87,7.48,9.78,7.48Zm.71-.6V6c0-.25-.11-.36-.35-.36H8.44c-.24,0-.36.11-.36.35v1.7a.31.31,0,0,0,.36.36h1.69c.25,0,.36-.11.36-.36Z"/></svg>