<svg id="Capa_1" data-name="Capa 1" xmlns="http://www.w3.org/2000/svg" viewBox="0 0 24 24"><defs><style>.cls-1{fill:none;}.cls-2{fill:#fff;}</style></defs><path class="cls-1" d="M0,0H24V24H0Z"/><path class="cls-2" d="M17.24,20.92s0,0,0,0H15.49c0-.05.08,0,.13,0Z"/><path class="cls-2" d="M5,20.92H16.41c.07,0,.15,0,.21,0H5S5,20.94,5,20.92Z"/><path class="cls-2" d="M13,18H7.12c-.28,0-.44-.13-.43-.34a.35.35,0,0,1,.3-.32H16.9a.33.33,0,1,1,0,.66H13Z"/><path class="cls-2" d="M13,10H7a.3.3,0,0,1-.26-.29.3.3,0,0,1,.2-.33.63.63,0,0,1,.24,0h9.71a.63.63,0,0,1,.23,0,.3.3,0,0,1,.2.33A.31.31,0,0,1,17,10H13Z"/><path class="cls-2" d="M18.61,20.11c0,.14,0,.18-.18.18H5.56c-.16,0-.19,0-.19-.19V3.92c0-.16,0-.2.2-.2h8.2c.19,0,.22.06.22.23,0,1.32,0,2.64,0,4,0,.35.1.46.46.46h4c.14,0,.2,0,.2.19C18.61,12.4,18.61,16.26,18.61,20.11Zm-4-15.84s0,0,0,0L18.1,7.7H14.8c-.08,0-.16,0-.16-.11C14.65,6.48,14.64,5.38,14.65,4.27Zm4.68,4a.8.8,0,0,0-.26-.62c-1.46-1.45-2.91-2.91-4.36-4.36A.67.67,0,0,0,14.2,3H5c-.23,0-.31.09-.33.34a8.39,8.39,0,0,1,0,1v.66a.42.42,0,0,1,0,.22v15.3c0,.3.07.36.34.36H16.4a.42.42,0,0,1,.22,0h.66a.31.31,0,0,1,.19,0H19c.21,0,.28-.1.3-.3v-.2Q19.32,14.34,19.33,8.24Z"/><path class="cls-2" d="M13,14H7.19c-.33,0-.49-.11-.5-.33s.16-.33.49-.33H17a.32.32,0,0,1,.32.32A.32.32,0,0,1,17,14H13Z"/><path class="cls-2" d="M13,15.32h4A.32.32,0,0,1,17,16H7.11c-.26,0-.42-.13-.42-.33s.15-.33.42-.33Z"/><path class="cls-2" d="M13,12H7a.33.33,0,0,1,0-.66h9.78l.27,0A.32.32,0,0,1,17,12a.91.91,0,0,1-.23,0Z"/><path class="cls-2" d="M8.56,8H7.46c-.09,0-.11,0-.11-.12,0-.36,0-.73,0-1.1,0-.08,0-.11.11-.11h1.1c.1,0,.12,0,.12.12s0,.36,0,.54,0,.37,0,.55S8.66,8,8.56,8Zm.38-2H7.08a.35.35,0,0,0-.39.38V8.31a.34.34,0,0,0,.39.38H9a.33.33,0,0,0,.38-.38V6.43C9.34,6.16,9.22,6.05,8.94,6.05Z"/></svg>