<svg id="Capa_1" data-name="Capa 1" xmlns="http://www.w3.org/2000/svg" viewBox="0 0 24 24"><defs><style>.cls-1{fill:none;}.cls-2{fill:#fff;}</style></defs><path class="cls-1" d="M0,0H24V24H0Z"/><path class="cls-2" d="M19.21,19.56c0,.27,0,.31-.33.31H5.11c-.28,0-.33,0-.33-.31V8.74c0-.15,0-.18.19-.18H19c.15,0,.21,0,.21.18C19.21,12.35,19.22,16,19.21,19.56ZM5.93,6.59l1.42-2.3a.24.24,0,0,1,.25-.15c1.23,0,2.45,0,3.67,0,.16,0,.19,0,.19.18,0,1,0,2,0,3.05,0,.09,0,.15-.15.15H5.36C5.55,7.19,5.74,6.89,5.93,6.59Zm6.65-2.31c0-.11,0-.14.14-.14h3.72a.17.17,0,0,1,.17.09l2,3.22s0,0,0,.07H12.75c-.12,0-.17,0-.17-.15ZM20.39,9c0-1,.11-.66-.42-1.52l-2.4-3.86a1.06,1.06,0,0,0-.95-.51H7.38a1.06,1.06,0,0,0-1,.52Q5.1,5.72,3.79,7.84a1.21,1.21,0,0,0-.19.66V19.58a1.27,1.27,0,0,0,1.18,1.34H19.22a1.23,1.23,0,0,0,1-.68,1.44,1.44,0,0,0,.14-.71C20.39,16,20.4,12.49,20.39,9Z"/><path class="cls-2" d="M9,18a.46.46,0,0,1-.39-.75.87.87,0,0,1,.09-.11l2.87-3c.28-.3.5-.3.78,0l2.88,3a.57.57,0,0,1,.19.43.43.43,0,0,1-.68.34.57.57,0,0,1-.14-.13l-2.55-2.69c-.07-.08-.11-.08-.18,0L9.34,17.83C9.24,17.94,9.14,18,9,18Z"/><path class="cls-2" d="M9,15.06a.46.46,0,0,1-.39-.75.87.87,0,0,1,.09-.11l2.87-3c.28-.3.5-.3.78,0l2.88,3.05a.57.57,0,0,1,.19.43.43.43,0,0,1-.68.34.57.57,0,0,1-.14-.13l-2.55-2.69c-.07-.08-.11-.08-.18,0L9.34,14.87C9.24,15,9.14,15.07,9,15.06Z"/></svg>