<svg id="Capa_1" data-name="Capa 1" xmlns="http://www.w3.org/2000/svg" viewBox="0 0 24 24"><defs><style>.cls-1{fill:none;}.cls-2{fill:#fff;}</style></defs><path class="cls-1" d="M0,0H24V24H0Z"/><path class="cls-2" d="M3.88,20.17H14.35c.07,0,.15,0,.21,0H3.89S3.88,20.19,3.88,20.17Z"/><path class="cls-2" d="M16.76,20.17s0,0,0,0h-1.6s.07,0,.11,0Z"/><path class="cls-2" d="M12.89,8.06c-.08,0-.15,0-.15-.1v-3h0l3.16,3.15ZM16.8,8l-4-4a.63.63,0,0,0-.47-.19H3.93c-.21,0-.28.09-.3.31s0,.61,0,.92v.6a.38.38,0,0,1,0,.21v14c0,.25.05.32.25.33H14.35a.5.5,0,0,1,.21,0h.6a.33.33,0,0,1,.17,0h1.43c.18,0,.24-.09.26-.28a1,1,0,0,0,0-.17V15.38a2.69,2.69,0,0,1-.65.34v3.71c0,.13,0,.16-.17.16H4.42c-.15,0-.17,0-.17-.17V4.6c0-.15,0-.18.18-.18h7.51c.18,0,.2.06.2.21,0,1.2,0,2.41,0,3.62,0,.33.09.42.42.42H16.2c.13,0,.18,0,.18.17V11a2.69,2.69,0,0,1,.65.34V8.55A.73.73,0,0,0,16.8,8Z"/><path class="cls-2" d="M11.22,17.47H7.67c-.25,0-.4-.13-.39-.32a.31.31,0,0,1,.27-.28h7.26c.21,0,.35.12.35.3s-.13.3-.35.31H11.22Z"/><path class="cls-2" d="M13.08,13.83H7.74c-.3,0-.46-.1-.46-.3s.15-.31.45-.31h5.32a.49.49,0,0,0,0,.12A2.63,2.63,0,0,0,13.08,13.83Z"/><path class="cls-2" d="M14.53,15.65H7.67c-.24,0-.39-.12-.39-.3s.14-.31.38-.31h6A2.33,2.33,0,0,0,14.53,15.65Z"/><path class="cls-2" d="M11.22,10.18H7.53a.28.28,0,0,1-.24-.27.28.28,0,0,1,.18-.3.56.56,0,0,1,.22,0h7.07a.51.51,0,0,1,.21,0,.29.29,0,0,1,.19.3.3.3,0,0,1-.25.27H11.22Z"/><path class="cls-2" d="M14,11.4a2.41,2.41,0,0,0-.55.6H7.6a.3.3,0,0,1-.32-.29.32.32,0,0,1,.29-.31H14Z"/><path class="cls-2" d="M6.06,10.18h-.3a.3.3,0,0,1,0-.59,2.48,2.48,0,0,1,.72,0,.28.28,0,0,1,.24.32.29.29,0,0,1-.29.26Z"/><path class="cls-2" d="M6.07,15.05c.11,0,.22,0,.33,0a.27.27,0,0,1,.27.26.28.28,0,0,1-.23.32,2.36,2.36,0,0,1-.75,0,.26.26,0,0,1-.22-.3.27.27,0,0,1,.26-.28C5.84,15,6,15.05,6.07,15.05Z"/><path class="cls-2" d="M6.07,16.86h.32a.31.31,0,0,1,.28.29.3.3,0,0,1-.28.31H5.74a.3.3,0,0,1-.28-.3.31.31,0,0,1,.29-.3Z"/><path class="cls-2" d="M6.06,12H5.75a.3.3,0,0,1-.29-.29.28.28,0,0,1,.25-.29,2.18,2.18,0,0,1,.72,0,.27.27,0,0,1,.24.3A.28.28,0,0,1,6.4,12Z"/><path class="cls-2" d="M6.07,13.21l.35,0a.28.28,0,0,1,.25.28.28.28,0,0,1-.23.3,2.36,2.36,0,0,1-.75,0,.27.27,0,0,1-.22-.29.26.26,0,0,1,.23-.28C5.82,13.22,6,13.22,6.07,13.21Z"/><path class="cls-2" d="M17,15.38a2.69,2.69,0,0,1-.65.34,2.41,2.41,0,0,1-.85.14,2.52,2.52,0,0,1-1-.21,2.33,2.33,0,0,1-.84-.61,2.53,2.53,0,0,1-.61-1.21,2.63,2.63,0,0,1,0-.49.49.49,0,0,1,0-.12A2.45,2.45,0,0,1,13.44,12a2.41,2.41,0,0,1,.55-.6,2.48,2.48,0,0,1,1.57-.55,2.77,2.77,0,0,1,.82.15,2.69,2.69,0,0,1,.65.34,2.51,2.51,0,0,1,0,4Zm3.17,2.16-2.14-2.13s0-.06,0-.11a3.16,3.16,0,0,0,.64-1.53,3.21,3.21,0,0,0-.13-1.41,3.16,3.16,0,0,0-1-1.45,2.79,2.79,0,0,0-1.17-.61,3.12,3.12,0,0,0-.44-.09,3.06,3.06,0,0,0-1.64.23,3.09,3.09,0,0,0-1.49,1.32c-.05.08-.09.16-.13.24a3.1,3.1,0,0,0-.31,1.22,3.18,3.18,0,0,0,0,.61h0a3.1,3.1,0,0,0,.44,1.2,3.24,3.24,0,0,0,.51.61l.07.06a3,3,0,0,0,2.64.77,1.55,1.55,0,0,0,.31-.06,3.27,3.27,0,0,0,.65-.26,3,3,0,0,0,.44-.28c.05-.05.08,0,.13,0L19.73,18a.76.76,0,0,0,.25.18h.14a.29.29,0,0,0,.27-.26V17.8A.63.63,0,0,0,20.2,17.54Z"/></svg>