<?xml version="1.0" encoding="utf-8"?>
<!-- Generator: Adobe Illustrator 25.2.0, SVG Export Plug-In . SVG Version: 6.00 Build 0)  -->
<svg version="1.1" id="Capa_1" xmlns="http://www.w3.org/2000/svg" xmlns:xlink="http://www.w3.org/1999/xlink" x="0px" y="0px"
	 viewBox="0 0 24 24" style="enable-background:new 0 0 24 24;" xml:space="preserve">
<style type="text/css">
	.st0{fill:none;}
	.st1{fill:#0B78CE;}
</style>
<path class="st0" d="M0,0h24v24H0V0z"/>
<path class="st1" d="M11,12c2.21,0,4-1.79,4-4s-1.79-4-4-4S7,5.79,7,8S8.79,12,11,12z M11,6c1.1,0,2,0.9,2,2s-0.9,2-2,2S9,9.1,9,8
	S9.9,6,11,6z M5,18c0.2-0.63,2.57-1.68,4.96-1.94l2.04-2C11.61,14.02,11.32,14,11,14c-2.67,0-8,1.34-8,4v2h9l-2-2H5z M20.6,12.5
	l-5.13,5.17l-2.07-2.08L12,17l3.47,3.5L22,13.91L20.6,12.5z"/>
</svg>
