<svg id="Capa_1" data-name="Capa 1" xmlns="http://www.w3.org/2000/svg" viewBox="0 0 204.77 195.18"><defs><style>.cls-1{fill:#0074c8;}.cls-1,.cls-2,.cls-3,.cls-4,.cls-5,.cls-6,.cls-7,.cls-8,.cls-9{fill-rule:evenodd;}.cls-2{fill:#fff;}.cls-3{fill:#feca42;}.cls-4{fill:#f68f48;}.cls-5{fill:#b2c748;}.cls-6{fill:#b78bb3;}.cls-7{fill:#0091c3;}.cls-8{fill:#ee3f38;}.cls-9{fill:#00acdb;}</style></defs><g id="Symbols"><g id="header-2"><g id="Group-14"><g id="Asset-3"><g id="Layer_2" data-name="Layer 2"><g id="Capa_1-2" data-name="Capa 1"><path id="Shape" class="cls-1" d="M97.89,0C152,0,195.77,43.69,195.77,97.59s-43.83,97.59-97.88,97.59S0,151.49,0,97.59,43.82,0,97.89,0Z"/><path id="Shape-2" data-name="Shape" class="cls-2" d="M93.27,75.88V86.82H44.78c-5.1,0-4.75,6.19,0,6.19h38c8.68.33,12.26,4.38,12.26,13.8s-3.12,13.89-12.26,14.6H30.24V110.29H80.67c5.34,0,5-6,0-6H43.72c-8.83,0-13.48-5.1-13.48-14.17,0-10.39,5.19-14.24,13.48-14.24Z"/><path id="Shape-3" data-name="Shape" class="cls-2" d="M109.46,86.86v23.51h37.41c6.35,0,7.79-3.46,7.79-11.76,0-8.46-2.41-11.75-9.3-11.75ZM97.11,58.53h12.17V76h37.16c13.67,0,19.86,7.21,19.86,21.53,0,15.86-3.84,23.87-19.24,23.87H97.11V58.53Z"/><polygon id="Shape-4" data-name="Shape" class="cls-2" points="33.07 70.08 32.31 70.08 32.31 64.46 36.22 64.46 36.22 65.13 33.07 65.13 33.07 66.85 35.84 66.85 35.84 67.53 33.07 67.53 33.07 70.08"/><path id="Shape-5" data-name="Shape" class="cls-2" d="M41.57,67.77l-.83-2.47h0l-.9,2.47Zm-2,.67L39,70.08h-.79l2.12-5.63h.87l2,5.63h-.84l-.56-1.64Z"/><path id="Shape-6" data-name="Shape" class="cls-2" d="M47,67h1.77a2,2,0,0,0,.42,0,.93.93,0,0,0,.36-.14.84.84,0,0,0,.27-.29,1.29,1.29,0,0,0,0-1,.77.77,0,0,0-.26-.28,1,1,0,0,0-.33-.12H47V67Zm0,3.06h-.76V64.46h2.61a3.14,3.14,0,0,1,.68.07,1.6,1.6,0,0,1,.59.24,1.17,1.17,0,0,1,.42.46,1.58,1.58,0,0,1,.17.74,1.88,1.88,0,0,1-.07.53,1.23,1.23,0,0,1-.45.63,1.85,1.85,0,0,1-.27.19l.24.1a.91.91,0,0,1,.21.18.85.85,0,0,1,.15.3,2,2,0,0,1,.07.49l0,1v.2a.34.34,0,0,0,0,.14.36.36,0,0,0,.08.12l.15.1v.13H50a1.86,1.86,0,0,1-.06-.34c0-.13,0-.27,0-.42a2.54,2.54,0,0,1,0-.39v-.27a2.07,2.07,0,0,0,0-.35.7.7,0,0,0-.13-.32.73.73,0,0,0-.31-.24,1.61,1.61,0,0,0-.54-.09H47v2.4Z"/><path id="Shape-7" data-name="Shape" class="cls-2" d="M58.62,70.08V65.35L57,70.08h-.76L54.7,65.36v4.72H54V64.46h1.09l1.61,4.75,1.6-4.75h1.08v5.62Z"/><path id="Shape-8" data-name="Shape" class="cls-2" d="M65.59,67.77l-.83-2.47h0l-.91,2.47Zm-2,.67L63,70.08h-.79l2.12-5.63h.87l2,5.63h-.84l-.56-1.64Z"/><path id="Shape-9" data-name="Shape" class="cls-2" d="M73.9,66.15a1.47,1.47,0,0,0-.26-.6,1.42,1.42,0,0,0-.41-.36,1.35,1.35,0,0,0-.49-.16,2.12,2.12,0,0,0-.44,0,2,2,0,0,0-.72.14,1.63,1.63,0,0,0-.58.43,1.84,1.84,0,0,0-.4.69,3.28,3.28,0,0,0-.15,1,4.7,4.7,0,0,0,.09.92,2.27,2.27,0,0,0,.32.75,1.62,1.62,0,0,0,.58.49,1.91,1.91,0,0,0,.88.18,1.47,1.47,0,0,0,.42-.06,1.23,1.23,0,0,0,.49-.23,1.63,1.63,0,0,0,.43-.48A2.15,2.15,0,0,0,74,68h.74a2.84,2.84,0,0,1-.27.9,2.42,2.42,0,0,1-.42.62,2.34,2.34,0,0,1-.49.39,4.25,4.25,0,0,1-.49.21,2.36,2.36,0,0,1-.45.08h-.31a2.68,2.68,0,0,1-.93-.16,2.17,2.17,0,0,1-.81-.52,2.44,2.44,0,0,1-.58-.93,3.8,3.8,0,0,1-.21-1.38A3.38,3.38,0,0,1,69.91,66a2.55,2.55,0,0,1,.52-.92,2.39,2.39,0,0,1,.83-.61,3,3,0,0,1,2.06-.06,2.37,2.37,0,0,1,.7.42,1.82,1.82,0,0,1,.45.58,2.12,2.12,0,0,1,.21.69Z"/><polygon id="Shape-10" data-name="Shape" class="cls-2" points="78.37 70.08 77.92 70.08 77.92 64.46 78.37 64.46 78.37 70.08"/><path id="Shape-11" data-name="Shape" class="cls-2" d="M85.05,67.77l-.83-2.47h0l-.9,2.47Zm-2,.67-.63,1.64h-.78l2.12-5.63h.86l2,5.63h-.8l-.56-1.64Z"/><path id="Shape-12" data-name="Shape" class="cls-2" d="M92.89,66.1a1.24,1.24,0,0,0-.12-.53,1,1,0,0,0-.33-.35A1.14,1.14,0,0,0,92,65a2.05,2.05,0,0,0-.49-.06,2.58,2.58,0,0,0-.4,0,1.36,1.36,0,0,0-.43.14.84.84,0,0,0-.32.3.83.83,0,0,0-.14.49.67.67,0,0,0,.21.51.94.94,0,0,0,.22.12l.24.08L92.5,67a2.05,2.05,0,0,1,.49.18,1.33,1.33,0,0,1,.67.73,1.5,1.5,0,0,1,.1.59A1.43,1.43,0,0,1,93,69.88a2.23,2.23,0,0,1-.72.27,3.77,3.77,0,0,1-1.42,0,2.72,2.72,0,0,1-.49-.13,1.74,1.74,0,0,1-.33-.18,1.24,1.24,0,0,1-.22-.18,1.56,1.56,0,0,1-.5-.67,2.76,2.76,0,0,1-.1-.75H90a1.15,1.15,0,0,0,.15.63,1.06,1.06,0,0,0,.36.4,1.28,1.28,0,0,0,.49.22,2.51,2.51,0,0,0,.55.06,3.55,3.55,0,0,0,.46,0,1.63,1.63,0,0,0,.49-.14,1,1,0,0,0,.38-.28.73.73,0,0,0,.15-.49.93.93,0,0,0-.06-.37.66.66,0,0,0-.19-.27,1.3,1.3,0,0,0-.37-.19l-.58-.17-1.15-.26a2,2,0,0,1-.35-.11,1.5,1.5,0,0,1-.39-.22,1.34,1.34,0,0,1-.32-.39,1.17,1.17,0,0,1-.14-.61,1.8,1.8,0,0,1,.11-.64,1.42,1.42,0,0,1,.34-.55,1.71,1.71,0,0,1,.6-.4,2.39,2.39,0,0,1,.88-.14,2.91,2.91,0,0,1,1.17.19,1.68,1.68,0,0,1,.66.49,1.44,1.44,0,0,1,.29.58,3.47,3.47,0,0,1,.08.55Z"/><path id="Shape-13" data-name="Shape" class="cls-2" d="M42,129a2.05,2.05,0,0,0-.23-.88,1.89,1.89,0,0,0-.53-.56,2.1,2.1,0,0,0-.72-.31,3.84,3.84,0,0,0-.76-.08,3.49,3.49,0,0,0-.65.06,2,2,0,0,0-.67.22,1.47,1.47,0,0,0-.53.49,1.41,1.41,0,0,0-.22.82,1.16,1.16,0,0,0,.09.49,1,1,0,0,0,.25.33,1,1,0,0,0,.34.2,1.79,1.79,0,0,0,.39.13l2.57.59a3.33,3.33,0,0,1,.82.29A2.14,2.14,0,0,1,43.26,132a2.51,2.51,0,0,1,.16.94,2.45,2.45,0,0,1-.33,1.32,2.56,2.56,0,0,1-.86.84,3.83,3.83,0,0,1-1.14.43,6.42,6.42,0,0,1-2.27,0,4,4,0,0,1-.77-.22,2.25,2.25,0,0,1-.53-.28l-.36-.29a2.44,2.44,0,0,1-.74-1.08,4,4,0,0,1-.18-1.19H37.4a2.08,2.08,0,0,0,.23,1,1.81,1.81,0,0,0,.58.62,2.28,2.28,0,0,0,.8.34,3.71,3.71,0,0,0,.88.1,4.71,4.71,0,0,0,.74-.06,2.7,2.7,0,0,0,.77-.22,1.67,1.67,0,0,0,.6-.45,1.24,1.24,0,0,0,.25-.79,1.7,1.7,0,0,0-.1-.59,1,1,0,0,0-.31-.42,2.22,2.22,0,0,0-.59-.31c-.25-.09-.56-.17-.92-.27L38.48,131a5,5,0,0,1-.55-.17,2.45,2.45,0,0,1-.63-.36,2.07,2.07,0,0,1-.52-.62,2,2,0,0,1-.22-1,3,3,0,0,1,.18-1,2.33,2.33,0,0,1,.56-.86,2.79,2.79,0,0,1,1-.63,3.74,3.74,0,0,1,1.41-.24,4.63,4.63,0,0,1,1.87.31,2.78,2.78,0,0,1,1,.75,2.36,2.36,0,0,1,.46.94,5.23,5.23,0,0,1,.13.87Z"/><path id="Shape-14" data-name="Shape" class="cls-2" d="M53.76,131.64l-1.33-4h0l-1.45,4Zm-3.18,1.08-.94,2.61H48.38l3.39-9h1.39l3.29,9H55.12l-.9-2.62Z"/><polygon id="Shape-15" data-name="Shape" class="cls-2" points="63.21 134.26 67.78 134.26 67.78 135.34 61.99 135.34 61.99 126.35 63.21 126.35 63.21 134.26"/><path id="Shape-16" data-name="Shape" class="cls-2" d="M79.76,129.05a2.36,2.36,0,0,0-.41-1,2.11,2.11,0,0,0-.65-.57,2.44,2.44,0,0,0-.74-.27,4.37,4.37,0,0,0-.72-.06,2.87,2.87,0,0,0-1.15.22,2.61,2.61,0,0,0-.94.67,3.27,3.27,0,0,0-.63,1.12,4.84,4.84,0,0,0-.23,1.56,7.33,7.33,0,0,0,.15,1.47,3.45,3.45,0,0,0,.49,1.19,2.51,2.51,0,0,0,.93.78,3,3,0,0,0,1.41.29,2.59,2.59,0,0,0,.68-.09,2,2,0,0,0,.74-.36,2.56,2.56,0,0,0,.69-.74,3.61,3.61,0,0,0,.47-1.27H81a4.86,4.86,0,0,1-.42,1.44,4.35,4.35,0,0,1-.68,1,3.53,3.53,0,0,1-.81.63,4.14,4.14,0,0,1-.82.33,3.26,3.26,0,0,1-.75.17c-.21,0-.38,0-.49,0a4.12,4.12,0,0,1-1.47-.27,3.44,3.44,0,0,1-1.3-.83,4.11,4.11,0,0,1-.92-1.47A6.38,6.38,0,0,1,73,130.8a5.89,5.89,0,0,1,.29-1.9,4.32,4.32,0,0,1,.83-1.46,3.54,3.54,0,0,1,1.32-1,4.75,4.75,0,0,1,3.3-.1,3.68,3.68,0,0,1,1.13.66,3,3,0,0,1,.72.94,3.42,3.42,0,0,1,.33,1.1Z"/><path id="Shape-17" data-name="Shape" class="cls-2" d="M95.3,130.85a5.86,5.86,0,0,1-.09,1,6.26,6.26,0,0,1-.3,1.07,5.46,5.46,0,0,1-.54,1,3.79,3.79,0,0,1-2,1.43,5.43,5.43,0,0,1-3,0,3.69,3.69,0,0,1-2-1.43,4.45,4.45,0,0,1-.54-1,4.85,4.85,0,0,1-.3-1.07,5.44,5.44,0,0,1,0-2.05,5,5,0,0,1,.3-1.07,5,5,0,0,1,.54-1,3.85,3.85,0,0,1,.82-.84,3.92,3.92,0,0,1,1.15-.59,5.43,5.43,0,0,1,3,0,3.75,3.75,0,0,1,1.14.59,3.68,3.68,0,0,1,.83.84,6.24,6.24,0,0,1,.54,1,6.53,6.53,0,0,1,.3,1.07,5.89,5.89,0,0,1,.09,1Zm-1.26,0a4.84,4.84,0,0,0-.21-1.47,3.36,3.36,0,0,0-.63-1.16,2.82,2.82,0,0,0-1-.76,3.25,3.25,0,0,0-2.63,0,2.91,2.91,0,0,0-1,.76,3.36,3.36,0,0,0-.63,1.16,5.22,5.22,0,0,0,0,2.93,3.36,3.36,0,0,0,.63,1.16,2.82,2.82,0,0,0,1,.77,3.34,3.34,0,0,0,2.63,0,2.82,2.82,0,0,0,1-.77,3.36,3.36,0,0,0,.63-1.16,4.82,4.82,0,0,0,.21-1.46Z"/><path id="Shape-18" data-name="Shape" class="cls-2" d="M102.41,134.3H105a2.05,2.05,0,0,0,1.43-.44,1.56,1.56,0,0,0,.49-1.2,1.46,1.46,0,0,0-.18-.77,1.6,1.6,0,0,0-.5-.47,2,2,0,0,0-.67-.22,4.87,4.87,0,0,0-.76-.06h-2.4v3.16Zm-1.22-8h4a2.92,2.92,0,0,1,1.1.18,2.27,2.27,0,0,1,.8.49,2.12,2.12,0,0,1,.5.72,2.58,2.58,0,0,1,.16.87,2.72,2.72,0,0,1,0,.49,2.22,2.22,0,0,1-.18.49,2.18,2.18,0,0,1-.37.49,1.8,1.8,0,0,1-.61.4,5.34,5.34,0,0,1,.5.23,2.45,2.45,0,0,1,.53.38,1.93,1.93,0,0,1,.42.63,2.19,2.19,0,0,1,.17,1,2.41,2.41,0,0,1-.2,1,2.47,2.47,0,0,1-.58.85,2.75,2.75,0,0,1-1,.57,3.7,3.7,0,0,1-1.32.22h-3.89v-9Zm1.22,3.81h2.2a2.65,2.65,0,0,0,1.38-.32,1.23,1.23,0,0,0,.49-1.14,1.2,1.2,0,0,0-.43-1,2.35,2.35,0,0,0-1.44-.33H102.4v2.78Z"/><path id="Shape-19" data-name="Shape" class="cls-2" d="M115.41,130.45h2.83c.22,0,.45,0,.67-.06a1.47,1.47,0,0,0,.58-.23,1.18,1.18,0,0,0,.42-.49,2,2,0,0,0,0-1.63,1.18,1.18,0,0,0-.41-.45,1.24,1.24,0,0,0-.53-.18,2.63,2.63,0,0,0-.49,0h-3v3.06Zm0,4.89H114.2v-9h4.17a5.57,5.57,0,0,1,1.08.11,2.91,2.91,0,0,1,1,.38,2.07,2.07,0,0,1,.67.74,2.35,2.35,0,0,1,.26,1.19,2.76,2.76,0,0,1-.11.85,2,2,0,0,1-.7,1l-.44.29a2.64,2.64,0,0,1,.38.18,1.13,1.13,0,0,1,.34.28,1.49,1.49,0,0,1,.24.49,3.26,3.26,0,0,1,.12.76l.08,1.63a1.71,1.71,0,0,0,0,.32,1.05,1.05,0,0,0,.06.24.62.62,0,0,0,.14.18,1.19,1.19,0,0,0,.23.16v.2h-1.48a3.29,3.29,0,0,1-.1-.53c0-.23-.06-.45-.07-.68s0-.43,0-.63,0-.33,0-.42a3.53,3.53,0,0,0,0-.56,1.08,1.08,0,0,0-.21-.52,1.3,1.3,0,0,0-.49-.38,2.32,2.32,0,0,0-.86-.14h-2.95v3.86Z"/><path id="Shape-20" data-name="Shape" class="cls-2" d="M132.18,131.64l-1.33-4h0l-1.44,4ZM129,132.72l-.94,2.61H126.8l3.39-9h1.38l3.27,9h-1.33l-.89-2.61Z"/><polygon id="Shape-21" data-name="Shape" class="cls-2" points="146.39 126.35 147.57 126.35 147.57 135.34 146.2 135.34 141.62 128.08 141.59 128.08 141.59 135.34 140.41 135.34 140.41 126.35 141.85 126.35 146.36 133.61 146.39 133.61 146.39 126.35"/><path id="Shape-22" data-name="Shape" class="cls-2" d="M155.23,134.3h2.36a2.3,2.3,0,0,0,1.9-.89,4.07,4.07,0,0,0,.71-2.62,3.81,3.81,0,0,0-.72-2.55,2.47,2.47,0,0,0-2-.85h-2.27v6.91Zm-1.22-8h3.66a3.76,3.76,0,0,1,1.58.32,3.36,3.36,0,0,1,1.19.89,4.06,4.06,0,0,1,.76,1.38,5.58,5.58,0,0,1,.26,1.77,7,7,0,0,1-.18,1.58,4.47,4.47,0,0,1-.63,1.49,3.41,3.41,0,0,1-3,1.55H154v-9Z"/><path id="Shape-23" data-name="Shape" class="cls-3" d="M153.47,61.32a29.78,29.78,0,0,1,8-8,26,26,0,0,0,13.65,8.22,21.83,21.83,0,0,0,2.33-10.19,35.53,35.53,0,0,0,7.14-4.48,34.12,34.12,0,0,1,20.16,7.34c-11.67,17.55-38.17,19-51.32,7.15Z"/><path id="Shape-24" data-name="Shape" class="cls-4" d="M184.63,46.83a35.53,35.53,0,0,1-7.14,4.48,33,33,0,0,0-.26-4.09,39.8,39.8,0,0,1,7.4-.39Z"/><path id="Shape-25" data-name="Shape" class="cls-5" d="M171.8,31.91c3.74-9.62,12-16.73,24-20a32.77,32.77,0,0,1-11.15,34.9,39,39,0,0,0-7.4.39,40.3,40.3,0,0,0-5.43-15.32Z"/><path id="Shape-26" data-name="Shape" class="cls-6" d="M177.23,47.22a33,33,0,0,1,.26,4.09,37.2,37.2,0,0,1-7,2.52,47.63,47.63,0,0,1-.73-4.73,40.24,40.24,0,0,1,7.49-1.87Z"/><path id="Shape-27" data-name="Shape" class="cls-7" d="M171.8,31.91a40.09,40.09,0,0,1,5.43,15.31,40,40,0,0,0-7.48,1.87,36.43,36.43,0,0,1,2.05-17.18Z"/><path id="Shape-28" data-name="Shape" class="cls-8" d="M175.16,61.5a25.9,25.9,0,0,1-13.65-8.22,35.7,35.7,0,0,1,8.24-4.18c.16,1.54.4,3.12.73,4.73a38.07,38.07,0,0,0,7-2.52,21.71,21.71,0,0,1-2.33,10.19Z"/><path id="Shape-29" data-name="Shape" class="cls-9" d="M161.49,53.28C153,44,148.73,29.2,153.29,17.49,161,19,167.46,24.71,171.79,31.9a37,37,0,0,0-2,17.19,35.61,35.61,0,0,0-8.25,4.19Z"/></g></g></g></g></g></g><g id="Symbols-2" data-name="Symbols"><g id="header-2-2" data-name="header-2"><g id="Group-14-2" data-name="Group-14"><g id="Asset-3-2" data-name="Asset-3"><g id="Layer_2-2" data-name="Layer 2"><g id="Capa_1-3" data-name="Capa 1"><path id="Shape-30" data-name="Shape" class="cls-1" d="M97.89,0C152,0,195.77,43.69,195.77,97.59s-43.83,97.59-97.88,97.59S0,151.49,0,97.59,43.82,0,97.89,0Z"/><path id="Shape-31" data-name="Shape" class="cls-2" d="M93.27,75.88V86.82H44.78c-5.1,0-4.75,6.19,0,6.19h38c8.68.33,12.26,4.38,12.26,13.8s-3.12,13.89-12.26,14.6H30.24V110.29H80.67c5.34,0,5-6,0-6H43.72c-8.83,0-13.48-5.1-13.48-14.17,0-10.39,5.19-14.24,13.48-14.24Z"/><path id="Shape-32" data-name="Shape" class="cls-2" d="M109.46,86.86v23.51h37.41c6.35,0,7.79-3.46,7.79-11.76,0-8.46-2.41-11.75-9.3-11.75ZM97.11,58.53h12.17V76h37.16c13.67,0,19.86,7.21,19.86,21.53,0,15.86-3.84,23.87-19.24,23.87H97.11V58.53Z"/><polygon id="Shape-33" data-name="Shape" class="cls-2" points="33.07 70.08 32.31 70.08 32.31 64.46 36.22 64.46 36.22 65.13 33.07 65.13 33.07 66.85 35.84 66.85 35.84 67.53 33.07 67.53 33.07 70.08"/><path id="Shape-34" data-name="Shape" class="cls-2" d="M41.57,67.77l-.83-2.47h0l-.9,2.47Zm-2,.67L39,70.08h-.79l2.12-5.63h.87l2,5.63h-.84l-.56-1.64Z"/><path id="Shape-35" data-name="Shape" class="cls-2" d="M47,67h1.77a2,2,0,0,0,.42,0,.93.93,0,0,0,.36-.14.84.84,0,0,0,.27-.29,1.29,1.29,0,0,0,0-1,.77.77,0,0,0-.26-.28,1,1,0,0,0-.33-.12H47V67Zm0,3.06h-.76V64.46h2.61a3.14,3.14,0,0,1,.68.07,1.6,1.6,0,0,1,.59.24,1.17,1.17,0,0,1,.42.46,1.58,1.58,0,0,1,.17.74,1.88,1.88,0,0,1-.07.53,1.23,1.23,0,0,1-.45.63,1.85,1.85,0,0,1-.27.19l.24.1a.91.91,0,0,1,.21.18.85.85,0,0,1,.15.3,2,2,0,0,1,.07.49l0,1v.2a.34.34,0,0,0,0,.14.36.36,0,0,0,.08.12l.15.1v.13H50a1.86,1.86,0,0,1-.06-.34c0-.13,0-.27,0-.42a2.54,2.54,0,0,1,0-.39v-.27a2.07,2.07,0,0,0,0-.35.7.7,0,0,0-.13-.32.73.73,0,0,0-.31-.24,1.61,1.61,0,0,0-.54-.09H47v2.4Z"/><path id="Shape-36" data-name="Shape" class="cls-2" d="M58.62,70.08V65.35L57,70.08h-.76L54.7,65.36v4.72H54V64.46h1.09l1.61,4.75,1.6-4.75h1.08v5.62Z"/><path id="Shape-37" data-name="Shape" class="cls-2" d="M65.59,67.77l-.83-2.47h0l-.91,2.47Zm-2,.67L63,70.08h-.79l2.12-5.63h.87l2,5.63h-.84l-.56-1.64Z"/><path id="Shape-38" data-name="Shape" class="cls-2" d="M73.9,66.15a1.47,1.47,0,0,0-.26-.6,1.42,1.42,0,0,0-.41-.36,1.35,1.35,0,0,0-.49-.16,2.12,2.12,0,0,0-.44,0,2,2,0,0,0-.72.14,1.63,1.63,0,0,0-.58.43,1.84,1.84,0,0,0-.4.69,3.28,3.28,0,0,0-.15,1,4.7,4.7,0,0,0,.09.92,2.27,2.27,0,0,0,.32.75,1.62,1.62,0,0,0,.58.49,1.91,1.91,0,0,0,.88.18,1.47,1.47,0,0,0,.42-.06,1.23,1.23,0,0,0,.49-.23,1.63,1.63,0,0,0,.43-.48A2.15,2.15,0,0,0,74,68h.74a2.84,2.84,0,0,1-.27.9,2.42,2.42,0,0,1-.42.62,2.34,2.34,0,0,1-.49.39,4.25,4.25,0,0,1-.49.21,2.36,2.36,0,0,1-.45.08h-.31a2.68,2.68,0,0,1-.93-.16,2.17,2.17,0,0,1-.81-.52,2.44,2.44,0,0,1-.58-.93,3.8,3.8,0,0,1-.21-1.38A3.38,3.38,0,0,1,69.91,66a2.55,2.55,0,0,1,.52-.92,2.39,2.39,0,0,1,.83-.61,3,3,0,0,1,2.06-.06,2.37,2.37,0,0,1,.7.42,1.82,1.82,0,0,1,.45.58,2.12,2.12,0,0,1,.21.69Z"/><polygon id="Shape-39" data-name="Shape" class="cls-2" points="78.37 70.08 77.92 70.08 77.92 64.46 78.37 64.46 78.37 70.08"/><path id="Shape-40" data-name="Shape" class="cls-2" d="M85.05,67.77l-.83-2.47h0l-.9,2.47Zm-2,.67-.63,1.64h-.78l2.12-5.63h.86l2,5.63h-.8l-.56-1.64Z"/><path id="Shape-41" data-name="Shape" class="cls-2" d="M92.89,66.1a1.24,1.24,0,0,0-.12-.53,1,1,0,0,0-.33-.35A1.14,1.14,0,0,0,92,65a2.05,2.05,0,0,0-.49-.06,2.58,2.58,0,0,0-.4,0,1.36,1.36,0,0,0-.43.14.84.84,0,0,0-.32.3.83.83,0,0,0-.14.49.67.67,0,0,0,.21.51.94.94,0,0,0,.22.12l.24.08L92.5,67a2.05,2.05,0,0,1,.49.18,1.33,1.33,0,0,1,.67.73,1.5,1.5,0,0,1,.1.59A1.43,1.43,0,0,1,93,69.88a2.23,2.23,0,0,1-.72.27,3.77,3.77,0,0,1-1.42,0,2.72,2.72,0,0,1-.49-.13,1.74,1.74,0,0,1-.33-.18,1.24,1.24,0,0,1-.22-.18,1.56,1.56,0,0,1-.5-.67,2.76,2.76,0,0,1-.1-.75H90a1.15,1.15,0,0,0,.15.63,1.06,1.06,0,0,0,.36.4,1.28,1.28,0,0,0,.49.22,2.51,2.51,0,0,0,.55.06,3.55,3.55,0,0,0,.46,0,1.63,1.63,0,0,0,.49-.14,1,1,0,0,0,.38-.28.73.73,0,0,0,.15-.49.93.93,0,0,0-.06-.37.66.66,0,0,0-.19-.27,1.3,1.3,0,0,0-.37-.19l-.58-.17-1.15-.26a2,2,0,0,1-.35-.11,1.5,1.5,0,0,1-.39-.22,1.34,1.34,0,0,1-.32-.39,1.17,1.17,0,0,1-.14-.61,1.8,1.8,0,0,1,.11-.64,1.42,1.42,0,0,1,.34-.55,1.71,1.71,0,0,1,.6-.4,2.39,2.39,0,0,1,.88-.14,2.91,2.91,0,0,1,1.17.19,1.68,1.68,0,0,1,.66.49,1.44,1.44,0,0,1,.29.58,3.47,3.47,0,0,1,.08.55Z"/><path id="Shape-42" data-name="Shape" class="cls-2" d="M42,129a2.05,2.05,0,0,0-.23-.88,1.89,1.89,0,0,0-.53-.56,2.1,2.1,0,0,0-.72-.31,3.84,3.84,0,0,0-.76-.08,3.49,3.49,0,0,0-.65.06,2,2,0,0,0-.67.22,1.47,1.47,0,0,0-.53.49,1.41,1.41,0,0,0-.22.82,1.16,1.16,0,0,0,.09.49,1,1,0,0,0,.25.33,1,1,0,0,0,.34.2,1.79,1.79,0,0,0,.39.13l2.57.59a3.33,3.33,0,0,1,.82.29A2.14,2.14,0,0,1,43.26,132a2.51,2.51,0,0,1,.16.94,2.45,2.45,0,0,1-.33,1.32,2.56,2.56,0,0,1-.86.84,3.83,3.83,0,0,1-1.14.43,6.42,6.42,0,0,1-2.27,0,4,4,0,0,1-.77-.22,2.25,2.25,0,0,1-.53-.28l-.36-.29a2.44,2.44,0,0,1-.74-1.08,4,4,0,0,1-.18-1.19H37.4a2.08,2.08,0,0,0,.23,1,1.81,1.81,0,0,0,.58.62,2.28,2.28,0,0,0,.8.34,3.71,3.71,0,0,0,.88.1,4.71,4.71,0,0,0,.74-.06,2.7,2.7,0,0,0,.77-.22,1.67,1.67,0,0,0,.6-.45,1.24,1.24,0,0,0,.25-.79,1.7,1.7,0,0,0-.1-.59,1,1,0,0,0-.31-.42,2.22,2.22,0,0,0-.59-.31c-.25-.09-.56-.17-.92-.27L38.48,131a5,5,0,0,1-.55-.17,2.45,2.45,0,0,1-.63-.36,2.07,2.07,0,0,1-.52-.62,2,2,0,0,1-.22-1,3,3,0,0,1,.18-1,2.33,2.33,0,0,1,.56-.86,2.79,2.79,0,0,1,1-.63,3.74,3.74,0,0,1,1.41-.24,4.63,4.63,0,0,1,1.87.31,2.78,2.78,0,0,1,1,.75,2.36,2.36,0,0,1,.46.94,5.23,5.23,0,0,1,.13.87Z"/><path id="Shape-43" data-name="Shape" class="cls-2" d="M53.76,131.64l-1.33-4h0l-1.45,4Zm-3.18,1.08-.94,2.61H48.38l3.39-9h1.39l3.29,9H55.12l-.9-2.62Z"/><polygon id="Shape-44" data-name="Shape" class="cls-2" points="63.21 134.26 67.78 134.26 67.78 135.34 61.99 135.34 61.99 126.35 63.21 126.35 63.21 134.26"/><path id="Shape-45" data-name="Shape" class="cls-2" d="M79.76,129.05a2.36,2.36,0,0,0-.41-1,2.11,2.11,0,0,0-.65-.57,2.44,2.44,0,0,0-.74-.27,4.37,4.37,0,0,0-.72-.06,2.87,2.87,0,0,0-1.15.22,2.61,2.61,0,0,0-.94.67,3.27,3.27,0,0,0-.63,1.12,4.84,4.84,0,0,0-.23,1.56,7.33,7.33,0,0,0,.15,1.47,3.45,3.45,0,0,0,.49,1.19,2.51,2.51,0,0,0,.93.78,3,3,0,0,0,1.41.29,2.59,2.59,0,0,0,.68-.09,2,2,0,0,0,.74-.36,2.56,2.56,0,0,0,.69-.74,3.61,3.61,0,0,0,.47-1.27H81a4.72,4.72,0,0,1-.42,1.43,4.19,4.19,0,0,1-.68,1,3.53,3.53,0,0,1-.81.63,4.14,4.14,0,0,1-.82.33,3.26,3.26,0,0,1-.75.17c-.21,0-.38,0-.49,0a4.12,4.12,0,0,1-1.47-.27,3.44,3.44,0,0,1-1.3-.83,4.11,4.11,0,0,1-.92-1.47A6.38,6.38,0,0,1,73,130.8a5.89,5.89,0,0,1,.29-1.9,4.32,4.32,0,0,1,.83-1.46,3.54,3.54,0,0,1,1.32-1,4.75,4.75,0,0,1,3.3-.1,3.68,3.68,0,0,1,1.13.66,3,3,0,0,1,.72.94,3.42,3.42,0,0,1,.33,1.1Z"/><path id="Shape-46" data-name="Shape" class="cls-2" d="M95.3,130.85a5.86,5.86,0,0,1-.09,1,6.26,6.26,0,0,1-.3,1.07,5.46,5.46,0,0,1-.54,1,3.79,3.79,0,0,1-2,1.43,5.43,5.43,0,0,1-3,0,3.69,3.69,0,0,1-2-1.43,4.45,4.45,0,0,1-.54-1,4.85,4.85,0,0,1-.3-1.07,5.44,5.44,0,0,1,0-2.05,5,5,0,0,1,.3-1.07,5,5,0,0,1,.54-1,3.85,3.85,0,0,1,.82-.84,3.92,3.92,0,0,1,1.15-.59,5.43,5.43,0,0,1,3,0,3.75,3.75,0,0,1,1.14.59,3.68,3.68,0,0,1,.83.84,6.24,6.24,0,0,1,.54,1,6.53,6.53,0,0,1,.3,1.07,5.89,5.89,0,0,1,.09,1Zm-1.26,0a4.84,4.84,0,0,0-.21-1.47,3.36,3.36,0,0,0-.63-1.16,2.82,2.82,0,0,0-1-.76,3.25,3.25,0,0,0-2.63,0,2.91,2.91,0,0,0-1,.76,3.36,3.36,0,0,0-.63,1.16,5.22,5.22,0,0,0,0,2.93,3.36,3.36,0,0,0,.63,1.16,2.82,2.82,0,0,0,1,.77,3.34,3.34,0,0,0,2.63,0,2.82,2.82,0,0,0,1-.77,3.36,3.36,0,0,0,.63-1.16,4.82,4.82,0,0,0,.21-1.46Z"/><path id="Shape-47" data-name="Shape" class="cls-2" d="M102.41,134.3H105a2.05,2.05,0,0,0,1.43-.44,1.56,1.56,0,0,0,.49-1.2,1.46,1.46,0,0,0-.18-.77,1.6,1.6,0,0,0-.5-.47,2,2,0,0,0-.67-.22,4.87,4.87,0,0,0-.76-.06h-2.4v3.16Zm-1.22-8h4a2.92,2.92,0,0,1,1.1.18,2.27,2.27,0,0,1,.8.49,2.12,2.12,0,0,1,.5.72,2.58,2.58,0,0,1,.16.87,2.72,2.72,0,0,1,0,.49,2.22,2.22,0,0,1-.18.49,2.18,2.18,0,0,1-.37.49,1.8,1.8,0,0,1-.61.4,5.34,5.34,0,0,1,.5.23,2.45,2.45,0,0,1,.53.38,1.93,1.93,0,0,1,.42.63,2.19,2.19,0,0,1,.17,1,2.41,2.41,0,0,1-.2,1,2.47,2.47,0,0,1-.58.85,2.75,2.75,0,0,1-1,.57,3.7,3.7,0,0,1-1.32.22h-3.89v-9Zm1.22,3.81h2.2a2.65,2.65,0,0,0,1.38-.32,1.23,1.23,0,0,0,.49-1.14,1.2,1.2,0,0,0-.43-1,2.35,2.35,0,0,0-1.44-.33H102.4v2.78Z"/><path id="Shape-48" data-name="Shape" class="cls-2" d="M115.41,130.45h2.83c.22,0,.45,0,.67-.06a1.47,1.47,0,0,0,.58-.23,1.18,1.18,0,0,0,.42-.49,2,2,0,0,0,0-1.63,1.18,1.18,0,0,0-.41-.45,1.24,1.24,0,0,0-.53-.18,2.63,2.63,0,0,0-.49,0h-3v3.06Zm0,4.89H114.2v-9h4.17a5.57,5.57,0,0,1,1.08.11,2.91,2.91,0,0,1,1,.38,2.07,2.07,0,0,1,.67.74,2.35,2.35,0,0,1,.26,1.19,2.76,2.76,0,0,1-.11.85,2,2,0,0,1-.7,1l-.44.29a2.64,2.64,0,0,1,.38.18,1.13,1.13,0,0,1,.34.28,1.49,1.49,0,0,1,.24.49,3.26,3.26,0,0,1,.12.76l.08,1.63a1.71,1.71,0,0,0,0,.32,1.05,1.05,0,0,0,.06.24.62.62,0,0,0,.14.18,1.19,1.19,0,0,0,.23.16v.2h-1.48a3.29,3.29,0,0,1-.1-.53c0-.23-.06-.45-.07-.68s0-.43,0-.63,0-.33,0-.42a3.53,3.53,0,0,0,0-.56,1.08,1.08,0,0,0-.21-.52,1.3,1.3,0,0,0-.49-.38,2.32,2.32,0,0,0-.86-.14h-2.95v3.86Z"/><path id="Shape-49" data-name="Shape" class="cls-2" d="M132.18,131.64l-1.33-4h0l-1.44,4ZM129,132.72l-.94,2.61H126.8l3.39-9h1.38l3.27,9h-1.33l-.89-2.61Z"/><polygon id="Shape-50" data-name="Shape" class="cls-2" points="146.39 126.35 147.57 126.35 147.57 135.34 146.2 135.34 141.62 128.08 141.59 128.08 141.59 135.34 140.41 135.34 140.41 126.35 141.85 126.35 146.36 133.61 146.39 133.61 146.39 126.35"/><path id="Shape-51" data-name="Shape" class="cls-2" d="M155.23,134.3h2.36a2.3,2.3,0,0,0,1.9-.89,4.07,4.07,0,0,0,.71-2.62,3.81,3.81,0,0,0-.72-2.55,2.47,2.47,0,0,0-2-.85h-2.27v6.91Zm-1.22-8h3.66a3.76,3.76,0,0,1,1.58.32,3.36,3.36,0,0,1,1.19.89,4.06,4.06,0,0,1,.76,1.38,5.58,5.58,0,0,1,.26,1.77,7,7,0,0,1-.18,1.58,4.47,4.47,0,0,1-.63,1.49,3.41,3.41,0,0,1-3,1.55H154v-9Z"/><path id="Shape-52" data-name="Shape" class="cls-3" d="M153.47,61.32a29.78,29.78,0,0,1,8-8,26,26,0,0,0,13.65,8.22,21.83,21.83,0,0,0,2.33-10.19,35.53,35.53,0,0,0,7.14-4.48,34.12,34.12,0,0,1,20.16,7.34c-11.67,17.55-38.17,19-51.32,7.15Z"/><path id="Shape-53" data-name="Shape" class="cls-4" d="M184.63,46.83a35.53,35.53,0,0,1-7.14,4.48,33,33,0,0,0-.26-4.09,39.8,39.8,0,0,1,7.4-.39Z"/><path id="Shape-54" data-name="Shape" class="cls-5" d="M171.8,31.91c3.74-9.62,12-16.73,24-20a32.77,32.77,0,0,1-11.15,34.9,39,39,0,0,0-7.4.39,40.3,40.3,0,0,0-5.43-15.32Z"/><path id="Shape-55" data-name="Shape" class="cls-6" d="M177.23,47.22a33,33,0,0,1,.26,4.09,37.2,37.2,0,0,1-7,2.52,47.63,47.63,0,0,1-.73-4.73,40.24,40.24,0,0,1,7.49-1.87Z"/><path id="Shape-56" data-name="Shape" class="cls-7" d="M171.8,31.91a40.09,40.09,0,0,1,5.43,15.31,40,40,0,0,0-7.48,1.87,36.43,36.43,0,0,1,2.05-17.18Z"/><path id="Shape-57" data-name="Shape" class="cls-8" d="M175.16,61.5a25.9,25.9,0,0,1-13.65-8.22,35.7,35.7,0,0,1,8.24-4.18c.16,1.54.4,3.12.73,4.73a38.07,38.07,0,0,0,7-2.52,21.71,21.71,0,0,1-2.33,10.19Z"/><path id="Shape-58" data-name="Shape" class="cls-9" d="M161.49,53.28C153,44,148.73,29.2,153.29,17.49,161,19,167.46,24.71,171.79,31.9a37,37,0,0,0-2,17.19,35.61,35.61,0,0,0-8.25,4.19Z"/></g></g></g></g></g></g></svg>