<?xml version="1.0" encoding="utf-8"?>
<!-- Generator: Adobe Illustrator 25.2.0, SVG Export Plug-In . SVG Version: 6.00 Build 0)  -->
<svg version="1.1" id="Capa_1" xmlns="http://www.w3.org/2000/svg" xmlns:xlink="http://www.w3.org/1999/xlink" x="0px" y="0px"
	 viewBox="0 0 204.77 195.18" style="enable-background:new 0 0 204.77 195.18;" xml:space="preserve">
<style type="text/css">
	.st0{fill-rule:evenodd;clip-rule:evenodd;fill:#0074C8;}
	.st1{fill-rule:evenodd;clip-rule:evenodd;fill:#FFFFFF;}
	.st2{fill-rule:evenodd;clip-rule:evenodd;fill:#FECA42;}
	.st3{fill-rule:evenodd;clip-rule:evenodd;fill:#F68F48;}
	.st4{fill-rule:evenodd;clip-rule:evenodd;fill:#B2C748;}
	.st5{fill-rule:evenodd;clip-rule:evenodd;fill:#B78BB3;}
	.st6{fill-rule:evenodd;clip-rule:evenodd;fill:#0091C3;}
	.st7{fill-rule:evenodd;clip-rule:evenodd;fill:#EE3F38;}
	.st8{fill-rule:evenodd;clip-rule:evenodd;fill:#00ACDB;}
</style>
<g id="Symbols">
	<g id="header-2" transform="translate(-605.000000, 0.000000)">
		<g id="Group-14">
			<g id="Asset-3" transform="translate(605.000000, 0.000000)">
				<g id="Layer_2">
					<g>
						<g id="Capa_1_2_">
							<path id="Shape" class="st0" d="M97.89,0c54.06,0,97.88,43.69,97.88,97.59s-43.82,97.59-97.88,97.59S0,151.49,0,97.59
								S43.82,0,97.89,0z"/>
							<path id="Shape_57_" class="st1" d="M93.27,75.88v10.94H44.78c-5.09,0-4.75,6.19,0,6.19h38c8.67,0.34,12.25,4.39,12.25,13.8
								s-3.12,13.89-12.25,14.6H30.24v-11.11h50.43c5.34,0,4.99-6,0-6H43.72c-8.83,0-13.48-5.1-13.48-14.17
								c0-10.39,5.19-14.24,13.48-14.24L93.27,75.88z"/>
							<path id="Shape_56_" class="st1" d="M109.46,86.86v23.5h37.41c6.36,0,7.79-3.46,7.79-11.75c0-8.47-2.4-11.75-9.29-11.75
								L109.46,86.86z M97.11,58.53h12.17v17.47h37.16c13.67,0,19.86,7.22,19.86,21.54c0,15.86-3.84,23.86-19.24,23.86H97.11V58.53
								L97.11,58.53z"/>
							<polygon id="Shape_55_" class="st1" points="33.07,70.08 32.31,70.08 32.31,64.46 36.21,64.46 36.21,65.13 33.07,65.13 
								33.07,66.85 35.84,66.85 35.84,67.53 33.07,67.53 							"/>
							<path id="Shape_54_" class="st1" d="M41.57,67.77l-0.83-2.47l0,0l-0.9,2.47H41.57z M39.61,68.44l-0.59,1.63h-0.79l2.12-5.62
								h0.86l2.04,5.62h-0.83l-0.56-1.63H39.61z"/>
							<path id="Shape_53_" class="st1" d="M46.97,67.02h1.77c0.14,0,0.28-0.01,0.42-0.03c0.13-0.02,0.25-0.07,0.36-0.14
								c0.11-0.07,0.2-0.18,0.27-0.29c0.14-0.33,0.14-0.69,0-1.02c-0.06-0.12-0.15-0.21-0.26-0.28c-0.1-0.06-0.21-0.1-0.33-0.12
								c-0.11-0.01-0.21-0.01-0.32,0h-1.9v1.91V67.02z M46.97,70.08h-0.76v-5.62h2.61c0.23,0,0.45,0.02,0.68,0.07
								c0.21,0.04,0.41,0.12,0.59,0.24c0.18,0.12,0.32,0.27,0.42,0.46c0.12,0.23,0.17,0.48,0.16,0.74c0,0.18-0.02,0.36-0.07,0.53
								c-0.08,0.25-0.23,0.47-0.44,0.63c-0.09,0.07-0.18,0.13-0.27,0.19c0.08,0.03,0.16,0.07,0.24,0.11
								c0.08,0.04,0.15,0.1,0.21,0.18c0.07,0.09,0.12,0.19,0.15,0.3c0.05,0.16,0.07,0.32,0.07,0.49l0.05,1.02c0,0.07,0,0.13,0,0.2
								c0.01,0.05,0.02,0.1,0.04,0.15c0.02,0.04,0.05,0.08,0.09,0.12c0.04,0.04,0.09,0.07,0.14,0.1v0.13h-0.93
								c-0.03-0.11-0.06-0.22-0.07-0.33c-0.02-0.14-0.03-0.28-0.04-0.42c-0.01-0.14-0.01-0.28,0-0.4v-0.26
								c0-0.12-0.01-0.24-0.03-0.35c-0.02-0.12-0.06-0.23-0.13-0.32c-0.08-0.1-0.18-0.18-0.3-0.23c-0.17-0.07-0.36-0.1-0.54-0.09
								h-1.86v2.41V70.08z"/>
							<path id="Shape_52_" class="st1" d="M58.62,70.08v-3.32v-0.22v-0.35v-0.42v-0.42l-1.59,4.72h-0.76l-1.59-4.71v0.42v0.42v0.35
								v0.22v3.32h-0.74v-5.62h1.09l1.61,4.75l1.6-4.75h1.08v5.62H58.62z"/>
							<path id="Shape_51_" class="st1" d="M65.59,67.77l-0.83-2.47l0,0l-0.9,2.47H65.59z M63.63,68.44l-0.59,1.63h-0.79l2.12-5.62
								h0.86l2.01,5.62h-0.83l-0.56-1.63H63.63z"/>
							<path id="Shape_50_" class="st1" d="M73.9,66.15c-0.04-0.22-0.13-0.42-0.26-0.6c-0.11-0.14-0.25-0.27-0.4-0.36
								c-0.15-0.08-0.32-0.14-0.49-0.17c-0.15-0.03-0.3-0.04-0.45-0.04c-0.25,0-0.49,0.05-0.72,0.14c-0.22,0.1-0.42,0.24-0.58,0.42
								c-0.18,0.2-0.31,0.44-0.4,0.69c-0.1,0.32-0.15,0.65-0.15,0.98c0,0.31,0.03,0.62,0.09,0.92c0.05,0.27,0.16,0.52,0.31,0.74
								c0.15,0.21,0.35,0.38,0.58,0.49c0.28,0.13,0.58,0.19,0.88,0.18c0.14,0,0.28-0.02,0.42-0.06c0.18-0.04,0.34-0.12,0.49-0.23
								c0.17-0.13,0.32-0.3,0.43-0.49c0.15-0.24,0.24-0.51,0.29-0.79h0.74c-0.04,0.31-0.13,0.62-0.27,0.9
								c-0.11,0.23-0.25,0.43-0.42,0.62c-0.14,0.15-0.31,0.28-0.49,0.39c-0.16,0.09-0.32,0.16-0.49,0.21
								c-0.15,0.04-0.3,0.07-0.45,0.09h-0.3c-0.32,0-0.63-0.06-0.93-0.17c-0.31-0.11-0.59-0.29-0.81-0.52
								c-0.26-0.26-0.45-0.58-0.57-0.92c-0.15-0.44-0.23-0.91-0.22-1.38c0-0.4,0.06-0.8,0.18-1.18c0.11-0.34,0.29-0.65,0.52-0.92
								c0.23-0.26,0.51-0.47,0.83-0.6c0.66-0.27,1.39-0.29,2.06-0.06c0.26,0.09,0.5,0.23,0.7,0.41c0.19,0.16,0.34,0.36,0.45,0.59
								c0.11,0.21,0.18,0.45,0.21,0.69L73.9,66.15z"/>
							<polygon id="Shape_49_" class="st1" points="78.37,70.08 77.92,70.08 77.92,64.46 78.37,64.46 							"/>
							<path id="Shape_48_" class="st1" d="M85.05,67.77l-0.83-2.47l0,0l-0.9,2.47H85.05z M83.09,68.44l-0.63,1.63h-0.79l2.12-5.62
								h0.86l2.04,5.62h-0.8l-0.56-1.63H83.09z"/>
							<path id="Shape_47_" class="st1" d="M92.89,66.1c0-0.18-0.04-0.36-0.12-0.53c-0.08-0.14-0.19-0.26-0.33-0.35
								c-0.13-0.09-0.28-0.15-0.44-0.19c-0.16-0.04-0.33-0.05-0.49-0.05c-0.13,0-0.27,0.01-0.4,0.03c-0.15,0.02-0.29,0.07-0.42,0.14
								c-0.13,0.07-0.24,0.17-0.33,0.3c-0.09,0.15-0.14,0.32-0.13,0.49c0,0.1,0.02,0.21,0.06,0.3c0.04,0.08,0.09,0.15,0.15,0.21
								c0.06,0.05,0.13,0.1,0.21,0.13c0.08,0.03,0.16,0.06,0.25,0.08l1.61,0.37c0.17,0.04,0.33,0.1,0.49,0.18
								c0.31,0.15,0.55,0.41,0.67,0.73c0.07,0.19,0.1,0.39,0.1,0.59c0.01,0.29-0.06,0.58-0.21,0.83c-0.13,0.21-0.32,0.39-0.54,0.52
								c-0.22,0.13-0.46,0.22-0.72,0.27c-0.47,0.1-0.95,0.11-1.42,0.03c-0.17-0.03-0.33-0.07-0.49-0.13
								c-0.12-0.05-0.23-0.1-0.33-0.18c-0.08-0.06-0.15-0.12-0.23-0.18c-0.22-0.18-0.39-0.41-0.49-0.68
								c-0.07-0.24-0.11-0.5-0.11-0.75h0.72c-0.01,0.22,0.04,0.44,0.14,0.64c0.09,0.16,0.21,0.3,0.36,0.4
								c0.15,0.1,0.32,0.17,0.49,0.22c0.18,0.04,0.36,0.06,0.55,0.06c0.15,0,0.31-0.01,0.46-0.03c0.17-0.02,0.33-0.07,0.49-0.14
								c0.15-0.06,0.28-0.16,0.38-0.28c0.11-0.14,0.16-0.31,0.15-0.49c0-0.13-0.02-0.25-0.06-0.37c-0.04-0.1-0.11-0.2-0.2-0.26
								c-0.11-0.08-0.24-0.15-0.37-0.19c-0.15-0.06-0.35-0.11-0.58-0.17l-1.15-0.26c-0.12-0.03-0.23-0.06-0.34-0.11
								c-0.14-0.05-0.27-0.13-0.39-0.23c-0.13-0.11-0.24-0.24-0.32-0.39c-0.1-0.19-0.15-0.4-0.14-0.61c0-0.22,0.04-0.44,0.11-0.64
								c0.07-0.21,0.19-0.4,0.34-0.56c0.17-0.17,0.38-0.3,0.6-0.39c0.28-0.1,0.58-0.15,0.88-0.15c0.4-0.02,0.8,0.05,1.17,0.19
								c0.26,0.11,0.48,0.28,0.66,0.49c0.14,0.17,0.24,0.37,0.29,0.59c0.04,0.18,0.07,0.36,0.08,0.54L92.89,66.1z"/>
							<path id="Shape_46_" class="st1" d="M42.04,128.98c0-0.31-0.08-0.61-0.23-0.88c-0.13-0.23-0.31-0.42-0.53-0.56
								c-0.22-0.14-0.46-0.25-0.71-0.3c-0.25-0.06-0.51-0.09-0.77-0.09c-0.22,0-0.43,0.02-0.65,0.06c-0.24,0.04-0.46,0.11-0.67,0.23
								c-0.21,0.12-0.4,0.29-0.53,0.49c-0.15,0.25-0.23,0.53-0.22,0.82c-0.01,0.17,0.03,0.34,0.09,0.49
								c0.06,0.12,0.14,0.24,0.25,0.33c0.1,0.09,0.21,0.16,0.34,0.21c0.13,0.05,0.26,0.09,0.39,0.13l2.58,0.59
								c0.28,0.06,0.56,0.16,0.81,0.29c0.5,0.24,0.88,0.66,1.07,1.18c0.11,0.3,0.16,0.62,0.16,0.94c0.02,0.46-0.1,0.92-0.33,1.33
								c-0.21,0.34-0.51,0.63-0.85,0.83c-0.35,0.21-0.74,0.35-1.14,0.43c-0.75,0.15-1.52,0.17-2.27,0.04
								c-0.26-0.05-0.52-0.12-0.77-0.22c-0.19-0.07-0.37-0.17-0.53-0.28c-0.12-0.09-0.24-0.19-0.36-0.29
								c-0.34-0.29-0.6-0.66-0.75-1.08c-0.12-0.39-0.17-0.79-0.17-1.19h1.16c-0.01,0.35,0.06,0.7,0.23,1.01
								c0.15,0.25,0.34,0.46,0.58,0.62c0.24,0.16,0.51,0.28,0.8,0.34c0.29,0.07,0.58,0.1,0.88,0.1c0.25,0,0.5-0.02,0.74-0.06
								c0.27-0.04,0.53-0.11,0.77-0.22c0.23-0.1,0.44-0.26,0.6-0.46c0.17-0.22,0.26-0.5,0.25-0.78c0.01-0.2-0.03-0.4-0.09-0.59
								c-0.06-0.17-0.17-0.31-0.31-0.42c-0.18-0.13-0.38-0.24-0.59-0.31c-0.25-0.09-0.56-0.18-0.92-0.27L38.48,131
								c-0.19-0.05-0.37-0.1-0.55-0.17c-0.23-0.08-0.44-0.21-0.63-0.36c-0.21-0.17-0.39-0.38-0.52-0.62
								c-0.16-0.3-0.23-0.64-0.22-0.98c0-0.35,0.06-0.7,0.18-1.03c0.12-0.33,0.32-0.62,0.57-0.87c0.28-0.28,0.61-0.49,0.98-0.63
								c0.45-0.17,0.93-0.25,1.41-0.24c0.64-0.03,1.27,0.08,1.87,0.31c0.41,0.16,0.77,0.42,1.05,0.75c0.23,0.27,0.39,0.59,0.47,0.94
								c0.06,0.29,0.11,0.58,0.13,0.87L42.04,128.98z"/>
							<path id="Shape_45_" class="st1" d="M53.76,131.64l-1.33-3.96h-0.02l-1.45,3.96H53.76z M50.58,132.72l-0.94,2.62h-1.26
								l3.39-8.99h1.38l3.29,9h-1.33l-0.89-2.62L50.58,132.72z"/>
							<polygon id="Shape_44_" class="st1" points="63.21,134.26 67.78,134.26 67.78,135.34 61.99,135.34 61.99,126.35 
								63.21,126.35 							"/>
							<path id="Shape_43_" class="st1" d="M79.76,129.05c-0.06-0.35-0.2-0.69-0.41-0.98c-0.18-0.23-0.4-0.42-0.65-0.57
								c-0.23-0.13-0.48-0.22-0.75-0.27c-0.24-0.04-0.48-0.07-0.72-0.07c-0.39,0-0.79,0.07-1.15,0.23
								c-0.36,0.15-0.68,0.38-0.94,0.67c-0.28,0.33-0.5,0.71-0.63,1.12c-0.16,0.5-0.24,1.03-0.23,1.56c0,0.49,0.05,0.99,0.15,1.47
								c0.08,0.42,0.25,0.83,0.49,1.19c0.24,0.34,0.55,0.61,0.92,0.79c0.44,0.21,0.93,0.3,1.41,0.29c0.23,0,0.46-0.04,0.68-0.09
								c0.27-0.07,0.52-0.19,0.75-0.36c0.27-0.2,0.51-0.45,0.69-0.74c0.24-0.39,0.39-0.82,0.47-1.27h1.18
								c-0.06,0.5-0.21,0.98-0.42,1.44c-0.17,0.36-0.4,0.69-0.68,0.98c-0.24,0.25-0.51,0.46-0.81,0.62
								c-0.26,0.14-0.54,0.25-0.82,0.34c-0.24,0.08-0.49,0.14-0.74,0.17c-0.22,0-0.38,0.02-0.49,0.02c-0.5,0-1-0.09-1.47-0.26
								c-0.49-0.18-0.93-0.46-1.3-0.83c-0.41-0.42-0.72-0.92-0.92-1.47c-0.25-0.71-0.36-1.46-0.34-2.21
								c-0.01-0.64,0.09-1.29,0.29-1.9c0.18-0.54,0.46-1.04,0.83-1.47c0.36-0.42,0.82-0.76,1.33-0.98c1.05-0.42,2.22-0.46,3.3-0.09
								c0.41,0.15,0.79,0.37,1.12,0.66c0.3,0.26,0.54,0.58,0.72,0.94c0.17,0.34,0.28,0.71,0.33,1.1L79.76,129.05z"/>
							<path id="Shape_42_" class="st1" d="M95.3,130.85c0,0.34-0.03,0.69-0.09,1.03c-0.06,0.36-0.16,0.72-0.3,1.07
								c-0.14,0.35-0.32,0.67-0.54,0.98c-0.23,0.32-0.51,0.61-0.82,0.85c-0.35,0.26-0.73,0.45-1.14,0.58
								c-0.98,0.28-2.01,0.28-2.99,0c-0.41-0.13-0.8-0.33-1.14-0.58c-0.32-0.24-0.6-0.52-0.82-0.85c-0.22-0.3-0.4-0.63-0.54-0.98
								c-0.14-0.34-0.24-0.7-0.3-1.07c-0.13-0.68-0.13-1.38,0-2.06c0.06-0.36,0.16-0.72,0.3-1.07c0.14-0.35,0.32-0.67,0.54-0.98
								c0.23-0.32,0.51-0.61,0.82-0.85c0.35-0.26,0.73-0.45,1.14-0.58c0.98-0.28,2.01-0.28,2.99,0c0.41,0.13,0.8,0.33,1.14,0.58
								c0.32,0.24,0.6,0.52,0.82,0.85c0.22,0.3,0.4,0.63,0.54,0.98c0.14,0.34,0.24,0.7,0.3,1.07
								C95.27,130.16,95.3,130.5,95.3,130.85L95.3,130.85z M94.04,130.85c0-0.5-0.07-0.99-0.22-1.47c-0.13-0.42-0.34-0.82-0.62-1.16
								c-0.27-0.32-0.6-0.58-0.98-0.76c-0.84-0.37-1.79-0.37-2.63,0c-0.38,0.18-0.71,0.44-0.98,0.76c-0.28,0.34-0.49,0.74-0.62,1.16
								c-0.29,0.96-0.29,1.98,0,2.94c0.13,0.42,0.34,0.82,0.62,1.16c0.27,0.32,0.6,0.58,0.98,0.76c0.84,0.37,1.79,0.37,2.63,0
								c0.38-0.18,0.71-0.44,0.98-0.76c0.28-0.34,0.49-0.74,0.62-1.16C93.97,131.84,94.05,131.34,94.04,130.85L94.04,130.85z"/>
							<path id="Shape_41_" class="st1" d="M102.41,134.3h2.6c0.52,0.04,1.03-0.12,1.43-0.45c0.33-0.31,0.51-0.75,0.49-1.2
								c0.01-0.27-0.05-0.54-0.19-0.77c-0.12-0.19-0.29-0.35-0.49-0.46c-0.21-0.12-0.44-0.19-0.68-0.23
								c-0.25-0.04-0.5-0.06-0.76-0.06h-2.4v3.16L102.41,134.3z M101.19,126.35h3.97c0.38-0.01,0.75,0.05,1.1,0.18
								c0.3,0.11,0.57,0.27,0.8,0.49c0.21,0.2,0.38,0.45,0.49,0.72c0.11,0.28,0.16,0.57,0.16,0.87c0,0.16-0.02,0.33-0.05,0.49
								c-0.04,0.17-0.1,0.34-0.18,0.49c-0.1,0.18-0.22,0.35-0.36,0.49c-0.18,0.17-0.38,0.31-0.61,0.41
								c0.15,0.06,0.32,0.13,0.49,0.23c0.2,0.1,0.38,0.23,0.54,0.38c0.18,0.18,0.32,0.39,0.42,0.63c0.13,0.31,0.18,0.64,0.17,0.98
								c0,0.35-0.07,0.7-0.2,1.02c-0.13,0.32-0.33,0.61-0.58,0.85c-0.28,0.26-0.6,0.45-0.96,0.58c-0.43,0.15-0.87,0.22-1.33,0.22
								h-3.88L101.19,126.35L101.19,126.35z M102.41,130.16h2.2c0.48,0.03,0.96-0.08,1.38-0.31c0.36-0.26,0.54-0.7,0.49-1.14
								c0.02-0.38-0.14-0.74-0.43-0.98c-0.43-0.26-0.94-0.38-1.44-0.34h-2.21v2.78L102.41,130.16z"/>
							<path id="Shape_40_" class="st1" d="M115.41,130.45h2.83c0.22,0,0.45-0.02,0.67-0.06c0.21-0.03,0.41-0.11,0.58-0.23
								c0.18-0.12,0.33-0.29,0.42-0.49c0.22-0.52,0.22-1.11,0-1.63c-0.1-0.18-0.24-0.34-0.42-0.45c-0.16-0.1-0.34-0.16-0.53-0.19
								c-0.16-0.02-0.33-0.04-0.49-0.04h-3.04v3.06L115.41,130.45z M115.41,135.34h-1.22v-8.99h4.17c0.36,0,0.73,0.04,1.08,0.11
								c0.34,0.07,0.66,0.2,0.95,0.38c0.28,0.19,0.51,0.44,0.67,0.74c0.18,0.37,0.27,0.77,0.26,1.18c0.01,0.29-0.03,0.58-0.11,0.85
								c-0.12,0.4-0.37,0.76-0.7,1.01c-0.14,0.11-0.29,0.2-0.44,0.29c0.13,0.05,0.26,0.11,0.38,0.18c0.13,0.07,0.25,0.17,0.34,0.28
								c0.11,0.15,0.2,0.31,0.25,0.49c0.07,0.25,0.11,0.5,0.12,0.76l0.07,1.63c-0.01,0.11-0.01,0.21,0,0.32
								c0.01,0.08,0.03,0.16,0.07,0.24c0.03,0.07,0.08,0.13,0.14,0.19c0.07,0.06,0.14,0.11,0.23,0.16v0.2h-1.47
								c-0.05-0.17-0.09-0.35-0.11-0.53c-0.03-0.22-0.05-0.45-0.07-0.67c-0.01-0.23-0.02-0.44-0.03-0.63c0-0.2,0-0.34,0-0.42
								c0-0.19-0.02-0.38-0.04-0.56c-0.03-0.19-0.1-0.37-0.22-0.52c-0.13-0.17-0.3-0.3-0.49-0.38c-0.27-0.11-0.57-0.15-0.86-0.14
								h-2.95v3.86L115.41,135.34z"/>
							<path id="Shape_39_" class="st1" d="M132.18,131.64l-1.33-3.96h-0.02l-1.44,3.96H132.18z M129,132.72l-0.94,2.62h-1.26
								l3.39-8.99h1.38l3.26,8.99h-1.33l-0.89-2.62H129z"/>
							<polygon id="Shape_38_" class="st1" points="146.39,126.35 147.57,126.35 147.57,135.34 146.2,135.34 141.62,128.08 
								141.59,128.08 141.59,135.34 140.41,135.34 140.41,126.35 141.85,126.35 146.36,133.61 146.39,133.61 							"/>
							<path id="Shape_37_" class="st1" d="M155.23,134.3h2.36c0.74,0.03,1.45-0.31,1.9-0.9c0.52-0.77,0.77-1.69,0.71-2.61
								c0.07-0.91-0.19-1.82-0.73-2.55c-0.49-0.57-1.21-0.88-1.96-0.85h-2.27v6.91H155.23z M154.01,126.35h3.66
								c0.54-0.01,1.08,0.1,1.58,0.32c0.46,0.21,0.87,0.51,1.19,0.9c0.34,0.4,0.6,0.87,0.76,1.38c0.18,0.57,0.27,1.17,0.27,1.78
								c0,0.53-0.06,1.06-0.18,1.57c-0.12,0.53-0.33,1.04-0.63,1.5c-0.66,1.02-1.82,1.61-3.03,1.55h-3.61V126.35L154.01,126.35z"/>
							<path id="Shape_36_" class="st2" d="M153.47,61.32c2.13-3.17,4.85-5.9,8.02-8.05c3.84,4.17,8.54,7.18,13.65,8.23
								c1.59-3.16,2.39-6.65,2.33-10.19c2.55-1.21,4.95-2.71,7.14-4.48c7.22,0.3,14.37,2.64,20.16,7.34
								c-11.68,17.55-38.17,19.04-51.32,7.15H153.47z"/>
							<path id="Shape_35_" class="st3" d="M184.63,46.83c-2.2,1.77-4.59,3.27-7.14,4.48c0-1.37-0.08-2.73-0.26-4.09
								C179.68,46.86,182.15,46.73,184.63,46.83L184.63,46.83z"/>
							<path id="Shape_34_" class="st4" d="M171.8,31.91c3.75-9.62,11.99-16.73,23.98-19.97c3.85,13.79-1.17,26.85-11.15,34.9
								c-2.47-0.1-4.95,0.03-7.4,0.39C176.48,41.81,174.63,36.59,171.8,31.91L171.8,31.91z"/>
							<path id="Shape_33_" class="st5" d="M177.23,47.22c0.18,1.36,0.26,2.72,0.26,4.09c-2.25,1.07-4.6,1.91-7.01,2.52
								c-0.33-1.61-0.57-3.18-0.73-4.73C172.17,48.24,174.68,47.61,177.23,47.22L177.23,47.22z"/>
							<path id="Shape_32_" class="st6" d="M171.8,31.91c2.84,4.68,4.69,9.9,5.43,15.32c-2.55,0.38-5.06,1-7.49,1.87
								C169.09,42.79,169.81,37,171.8,31.91L171.8,31.91z"/>
							<path id="Shape_31_" class="st7" d="M175.16,61.5c-5.12-1.04-9.82-4.06-13.65-8.23c2.55-1.74,5.32-3.14,8.24-4.18
								c0.16,1.55,0.4,3.12,0.73,4.73c2.42-0.6,4.77-1.44,7.01-2.51C177.55,54.85,176.76,58.34,175.16,61.5L175.16,61.5z"/>
							<path id="Shape_30_" class="st8" d="M161.49,53.28c-8.46-9.23-12.76-24.08-8.2-35.79c7.66,1.47,14.17,7.22,18.5,14.42
								c-1.96,5.09-2.7,10.89-2.05,17.19C166.82,50.12,164.05,51.53,161.49,53.28L161.49,53.28z"/>
						</g>
					</g>
				</g>
			</g>
		</g>
	</g>
</g>
</svg>
