<svg xmlns="http://www.w3.org/2000/svg" viewBox="0 0 228.32 220.25"><defs><style>.cls-1{fill:#0b78ce;}.cls-2{fill:#0bafea;}.cls-3{fill:none;stroke:#000;stroke-miterlimit:10;}.cls-4{fill:#ffdf07;}.cls-5{fill:#ff8708;}.cls-6{fill:#d4e00a;}.cls-7{fill:#4f8bc7;}.cls-8{fill:#d38ebf;}.cls-9{fill:#f70a0b;}.cls-10,.cls-11,.cls-15{fill:#fff;}.cls-11{font-size:9.02px;letter-spacing:0.19em;}.cls-11,.cls-15{font-family:Montserrat-Regular, Montserrat;}.cls-12{letter-spacing:0.22em;}.cls-13{letter-spacing:0.21em;}.cls-14{letter-spacing:0.22em;}.cls-15{font-size:14.86px;letter-spacing:0.27em;}.cls-16{letter-spacing:0.26em;}.cls-17{letter-spacing:0.26em;}</style></defs><title>Recurso 1</title><g id="Capa_2" data-name="Capa 2"><g id="Capa_3" data-name="Capa 3"><circle class="cls-1" cx="110.12" cy="110.12" r="110.12"/><path class="cls-2" d="M180.45,59.43c.46.08.91.16,1.36.22-.2.16-.41.33-.6.5C181,59.92,180.7,59.68,180.45,59.43Z"/><path class="cls-3" d="M197.2,68.62q-.44-.09-.87-.21l.3-.61C196.81,68.07,197,68.35,197.2,68.62Z"/><path class="cls-3" d="M197.2,68.62q-.44-.09-.87-.21l.3-.61C196.81,68.07,197,68.35,197.2,68.62Z"/><path class="cls-2" d="M190.63,48.15a35.1,35.1,0,0,0,.52,6,35,35,0,0,0-9.34,5.48c-.45-.06-.9-.14-1.36-.22a35.19,35.19,0,0,1-6.93-40.55,35.16,35.16,0,0,1,20.4,14.41A35,35,0,0,0,190.63,48.15Z"/><path class="cls-4" d="M196.63,67.8a35.15,35.15,0,0,0,3-10.37,34.69,34.69,0,0,0,9.1-5.38,34.94,34.94,0,0,1,19.18,9.05l.41.38a35.11,35.11,0,0,1-30.13,17.05,35.14,35.14,0,0,1-24.29-9.75,35.17,35.17,0,0,1,7.31-8.63,35,35,0,0,0,15.12,8.26"/><path class="cls-5" d="M199.63,57.43a35.3,35.3,0,0,0,.29-4.5c0-.32,0-.64,0-1a35,35,0,0,1,4.12-.23,34.57,34.57,0,0,1,4.7.31A34.69,34.69,0,0,1,199.63,57.43Z"/><path class="cls-6" d="M221.67,24.81a35.05,35.05,0,0,1-12.94,27.24,34.57,34.57,0,0,0-4.7-.31,35,35,0,0,0-4.12.23,35,35,0,0,0-6-18.68A35.22,35.22,0,0,1,217.48,14c.77-.19,1.55-.35,2.33-.48.32.92.59,1.86.83,2.81A34.94,34.94,0,0,1,221.67,24.81Z"/><path class="cls-7" d="M199.91,52a35,35,0,0,0-8.76,2.2,35.18,35.18,0,0,1,2.77-20.88A35,35,0,0,1,199.91,52Z"/><path class="cls-8" d="M199.92,52.93a35.3,35.3,0,0,1-.29,4.5,34.2,34.2,0,0,1-7.14,2,34.6,34.6,0,0,1-1.34-5.28,35,35,0,0,1,8.76-2.2C199.91,52.29,199.92,52.61,199.92,52.93Z"/><path class="cls-9" d="M199.63,57.43a35.15,35.15,0,0,1-3,10.37l-.3.61a35,35,0,0,1-15.12-8.26c.19-.17.4-.34.6-.5a35,35,0,0,1,9.34-5.48,34.6,34.6,0,0,0,1.34,5.28A34.2,34.2,0,0,0,199.63,57.43Z"/><path class="cls-10" d="M107.74,119.71a15.39,15.39,0,0,1-14.81,15.38l-.58,0H32.45V123.75H90.64a4,4,0,0,0,0-8.09H46.89a16.37,16.37,0,0,1-2.11-.14,15.28,15.28,0,0,1,2.11-30.43h56.89V96.45H48a3.95,3.95,0,0,0-.62,7.85,3.18,3.18,0,0,0,1.23,0H92.35a15.42,15.42,0,0,1,15.39,15.41Z"/><path class="cls-10" d="M185.43,100.83A18.79,18.79,0,0,0,166.89,85H122.38V65.29H109.06v70.26h57.83a18.76,18.76,0,0,0,15.66-8.42,18,18,0,0,0,1.36-2.43,18.59,18.59,0,0,0,1.75-7.92v-13A19.44,19.44,0,0,0,185.43,100.83Zm-12.17,14.69a8.13,8.13,0,0,1-8.13,8.13H122.38V96.51h42.75a8.14,8.14,0,0,1,8.13,8.13Z"/><text class="cls-11" transform="translate(34.08 78.81)">F<tspan class="cls-12" x="7.39" y="0">ARM</tspan><tspan class="cls-13" x="34.92" y="0">A</tspan><tspan class="cls-14" x="43.27" y="0">CIAS</tspan></text><text class="cls-15" transform="translate(39.39 153.4)">SA<tspan class="cls-16" x="27.9" y="0">L</tspan><tspan class="cls-17" x="40.5" y="0">C</tspan><tspan x="55.01" y="0">OBRAND</tspan></text></g></g></svg>