<svg xmlns="http://www.w3.org/2000/svg" viewBox="0 0 28.82 25.19"><defs><style>.cls-1{fill:#0b78ce;}</style></defs><title>Recurso 3</title><g id="Capa_2" data-name="Capa 2"><g id="Capa_3" data-name="Capa 3"><path class="cls-1" d="M27.73,6.11l-5-5a3.38,3.38,0,0,0-5,0L3,15.77a3.37,3.37,0,0,0,0,5l2.56,2.57.54.53H5.82c-1.64,0-3.28,0-4.93,0a.85.85,0,0,0-.89.52v.28a.8.8,0,0,0,.87.55H20.26a1.84,1.84,0,0,0,.33,0,.65.65,0,0,0,.52-.62.68.68,0,0,0-.46-.64,1.29,1.29,0,0,0-.39,0h-5c-.09,0-.18,0-.28-.06l.13-.11q6.28-6.27,12.55-12.56a3.56,3.56,0,0,0,.42-.45A3.36,3.36,0,0,0,27.73,6.11ZM13.16,23.78a.32.32,0,0,1-.25.07H8.21a.39.39,0,0,1-.32-.13L4,19.78a2,2,0,0,1,0-3l2.93-2.93c.1-.11.17-.12.28,0l7.92,7.91.06.08ZM26.83,10.1,16.24,20.73c-.12.11-.17.13-.3,0L8.12,12.91c-.13-.12-.15-.19,0-.32L18.7,2a2,2,0,0,1,3,0c1.71,1.69,3.4,3.39,5.1,5.09a2,2,0,0,1,.65,1.5A2.06,2.06,0,0,1,26.83,10.1Z"/></g></g></svg>