<svg xmlns="http://www.w3.org/2000/svg" viewBox="0 0 27.2 27.24"><defs><style>.cls-1{fill:#0b78ce;}</style></defs><title>Recurso 2</title><g id="Capa_2" data-name="Capa 2"><g id="Capa_3" data-name="Capa 3"><path class="cls-1" d="M26.85,12.74,14.49.37A1.16,1.16,0,0,0,13.84,0h-.43a1.22,1.22,0,0,0-.71.41L.46,12.66l-.17.17a1.15,1.15,0,0,0,0,1.46,1,1,0,0,0,1.42.12c.07-.05.13-.14.24-.15a1.55,1.55,0,0,1,0,.3c0,3.79,0,7.58,0,11.37,0,.88.33,1.31,1.32,1.31,7,0,14,0,21,0h.34a.93.93,0,0,0,.81-.86c0-.12,0-.24,0-.37V14.57a.5.5,0,0,1,.05-.33,1.16,1.16,0,0,0,1.05.37.92.92,0,0,0,.76-.78v-.39A.85.85,0,0,0,26.85,12.74ZM16.28,25.26c-1.77,0-3.54,0-5.31,0-.23,0-.27-.07-.27-.28,0-1.21,0-2.42,0-3.64s0-2.4,0-3.61c0-.18,0-.25.24-.25h5.37c.2,0,.24.06.24.25,0,2.43,0,4.85,0,7.28C16.55,25.23,16.47,25.26,16.28,25.26Zm6.78,0c-1.44,0-2.87,0-4.31,0-.22,0-.28-.05-.27-.27V16.7a1.09,1.09,0,0,0-.33-.91,1,1,0,0,0-.71-.24c-2.54,0-5.08,0-7.63,0-.68,0-1,.4-1,1.12V25c0,.23,0,.31-.3.3-1.43,0-2.86,0-4.3,0-.23,0-.27-.06-.27-.27q0-6.36,0-12.7a.48.48,0,0,1,.15-.37l9.41-9.41c.12-.13.19-.14.33,0l9.4,9.41a.49.49,0,0,1,.16.37c0,2.13,0,4.25,0,6.38s0,4.21,0,6.32C23.35,25.22,23.28,25.26,23.06,25.26Z"/></g></g></svg>